<?xml version="1.0" encoding="UTF-8"?>
<svg version="1.1" xmlns="http://www.w3.org/2000/svg" width="1038" height="248">
<path d="M0 0 C0.95422852 0.00161133 1.90845703 0.00322266 2.89160156 0.00488281 C11.52779403 0.15253478 19.20259284 1.67585635 27.375 4.375 C28.2928125 4.66375 29.210625 4.9525 30.15625 5.25 C49.29682322 12.03400064 63.87047534 27.87711019 72.6875 45.6875 C80.8516601 64.74478737 82.89453662 86.71350605 75.375 106.375 C66.82433142 127.14443574 52.81333263 143.90957002 31.7890625 152.91015625 C10.44056763 160.85216681 -13.03219929 161.22015947 -33.93774414 151.68994141 C-52.73124238 142.55461481 -67.25827688 126.77505572 -74.5 107.125 C-81.74098187 85.95905299 -80.67502391 63.21343537 -70.9375 43.0625 C-61.08543096 23.9010802 -44.44912868 10.38310254 -24.20703125 3.3828125 C-16.11021348 1.10475472 -8.41412349 -0.01501986 0 0 Z M-1.625 5.375 C-2.285 6.365 -2.945 7.355 -3.625 8.375 C-6.25 8.5625 -6.25 8.5625 -8.625 8.375 C-9.12 7.385 -9.12 7.385 -9.625 6.375 C-10.945 6.705 -12.265 7.035 -13.625 7.375 C-13.955 8.695 -14.285 10.015 -14.625 11.375 C-19.08 10.385 -19.08 10.385 -23.625 9.375 C-24.615 11.025 -25.605 12.675 -26.625 14.375 C-28.935 14.045 -31.245 13.715 -33.625 13.375 C-34.615 15.355 -35.605 17.335 -36.625 19.375 C-37.57375 19.354375 -38.5225 19.33375 -39.5 19.3125 C-42.53166283 19.14948174 -42.53166283 19.14948174 -44.625 20.375 C-45.28272428 23.40434491 -45.28272428 23.40434491 -45.625 26.375 C-46.40875 26.33375 -47.1925 26.2925 -48 26.25 C-50.78616119 26.08771266 -50.78616119 26.08771266 -52.625 28.375 C-53.02264263 30.36321313 -53.36275349 32.36444339 -53.625 34.375 C-54.594375 34.66375 -55.56375 34.9525 -56.5625 35.25 C-59.73164203 36.01714682 -59.73164203 36.01714682 -60.625 38.375 C-60.34387936 40.38300456 -60.01432033 42.38514051 -59.625 44.375 C-61.275 44.375 -62.925 44.375 -64.625 44.375 C-65.42453138 47.66196233 -65.72158936 49.08523192 -64.625 52.375 C-64.955 53.035 -65.285 53.695 -65.625 54.375 C-67.605 54.87 -67.605 54.87 -69.625 55.375 C-69.295 58.345 -68.965 61.315 -68.625 64.375 C-69.945 65.035 -71.265 65.695 -72.625 66.375 C-72.295 68.025 -71.965 69.675 -71.625 71.375 C-70.965 71.375 -70.305 71.375 -69.625 71.375 C-69.9375 73.75 -69.9375 73.75 -70.625 76.375 C-72.11 77.365 -72.11 77.365 -73.625 78.375 C-73.27713292 80.35036745 -73.27713292 80.35036745 -72.625 82.375 C-71.965 82.705 -71.305 83.035 -70.625 83.375 C-70 85.9375 -70 85.9375 -69.625 88.375 C-71.11 88.87 -71.11 88.87 -72.625 89.375 C-72.295 90.695 -71.965 92.015 -71.625 93.375 C-70.305 93.705 -68.985 94.035 -67.625 94.375 C-68.285 97.345 -68.945 100.315 -69.625 103.375 C-67.975 103.705 -66.325 104.035 -64.625 104.375 C-64.70878906 105.01308594 -64.79257813 105.65117187 -64.87890625 106.30859375 C-64.98074219 107.13488281 -65.08257812 107.96117187 -65.1875 108.8125 C-65.29191406 109.63621094 -65.39632812 110.45992188 -65.50390625 111.30859375 C-65.56384766 112.33146484 -65.56384766 112.33146484 -65.625 113.375 C-64.55854885 114.67133621 -64.55854885 114.67133621 -62.0625 114.4375 C-61.258125 114.416875 -60.45375 114.39625 -59.625 114.375 C-59.65755208 116.39322917 -59.69010417 118.41145833 -59.72265625 120.4296875 C-59.75149242 122.45685404 -59.75149242 122.45685404 -58.625 124.375 C-55.59565509 125.03272428 -55.59565509 125.03272428 -52.625 125.375 C-52.66625 126.15875 -52.7075 126.9425 -52.75 127.75 C-52.91228734 130.53616119 -52.91228734 130.53616119 -50.625 132.375 C-48.63678687 132.77264263 -46.63555661 133.11275349 -44.625 133.375 C-44.33625 134.344375 -44.0475 135.31375 -43.75 136.3125 C-42.98285318 139.48164203 -42.98285318 139.48164203 -40.625 140.375 C-38.61699544 140.09387936 -36.61485949 139.76432033 -34.625 139.375 C-34.625 141.025 -34.625 142.675 -34.625 144.375 C-30.92958414 145.32524979 -28.32041586 145.32524979 -24.625 144.375 C-24.13 146.85 -24.13 146.85 -23.625 149.375 C-20.25037285 148.82776317 -18.54265 148.3201 -15.625 146.375 C-16.21925781 145.82714844 -16.81351563 145.27929688 -17.42578125 144.71484375 C-23.41703318 138.98448615 -28.29640119 133.04702899 -32.95629883 126.20288086 C-34.11087443 124.54388523 -35.36107488 122.9522776 -36.625 121.375 C-37.615 121.375 -38.605 121.375 -39.625 121.375 C-39.53992188 120.06982422 -39.53992188 120.06982422 -39.453125 118.73828125 C-39.64743838 114.93592172 -40.60335976 112.90844432 -42.375 109.5625 C-52.80718031 87.85961898 -52.36579013 63.16228667 -45.8203125 40.390625 C-43.94528908 35.66017376 -41.88332282 32.21388188 -37.625 29.375 C-32.27954545 29.04772727 -32.27954545 29.04772727 -29.625 30.375 C-29.25288462 37.94134615 -29.25288462 37.94134615 -31.13671875 40.13671875 C-31.62785156 40.54535156 -32.11898437 40.95398438 -32.625 41.375 C-25.23226274 45.11308837 -17.90420414 46.8507166 -9.625 45.375 C-6.72712479 43.67848556 -6.72712479 43.67848556 -4.625 41.375 C-4.20690799 38.20651973 -4.20690799 38.20651973 -4.625 35.375 C-5.285 35.045 -5.945 34.715 -6.625 34.375 C-7.12 32.89 -7.12 32.89 -7.625 31.375 C-6.635 30.88 -6.635 30.88 -5.625 30.375 C-5.83640625 29.37210938 -6.0478125 28.36921875 -6.265625 27.3359375 C-6.67236204 22.85298792 -5.93192119 20.19652896 -4.375 16 C-3.71757812 14.16308594 -3.71757812 14.16308594 -3.046875 12.2890625 C-2.57765625 11.32742187 -2.1084375 10.36578125 -1.625 9.375 C-0.635 9.045 0.355 8.715 1.375 8.375 C1.4575 9.220625 1.54 10.06625 1.625 10.9375 C2.19754958 14.50667944 2.19754958 14.50667944 4.4375 17.625 C7.1593838 21.99770141 6.73645115 26.38496613 6.375 31.375 C7.035 31.375 7.695 31.375 8.375 31.375 C7.375 34.375 7.375 34.375 5.375 35.375 C4.95690799 38.20651973 4.95690799 38.20651973 5.375 41.375 C7.98868361 44.04143686 9.68917597 45.25418126 13.390625 45.90625 C20.61100868 45.83648784 26.08215185 45.01737206 32.375 41.375 C32.375 40.715 32.375 40.055 32.375 39.375 C31.715 39.045 31.055 38.715 30.375 38.375 C29.625 35.5 29.625 35.5 29.375 32.375 C30.365 30.89 30.365 30.89 31.375 29.375 C35.2234007 28.86672066 37.58806973 28.97238451 41.0625 30.75 C44.44079863 34.58482547 45.8547083 38.53475507 47.375 43.375 C47.67664063 44.30441406 47.97828125 45.23382813 48.2890625 46.19140625 C54.45739421 69.22176623 50.91949065 94.28601871 40.375 115.375 C40.335008 117.37460012 40.33153201 119.37547242 40.375 121.375 C38.89 120.88 38.89 120.88 37.375 120.375 C37.02050781 121.00664062 36.66601562 121.63828125 36.30078125 122.2890625 C30.62242998 131.83089247 23.19283493 139.55716507 15.375 147.375 C18.345 148.035 21.315 148.695 24.375 149.375 C24.705 147.725 25.035 146.075 25.375 144.375 C27.39322917 144.66796875 29.41145833 144.9609375 31.4296875 145.25390625 C33.45640667 145.5434297 33.45640667 145.5434297 35.375 144.375 C35.375 142.725 35.375 141.075 35.375 139.375 C36.65375 139.41625 37.9325 139.4575 39.25 139.5 C41.39371492 139.61712873 41.39371492 139.61712873 43.375 139.375 C45.73453094 137.01546906 45.86641413 135.59604383 46.375 132.375 C47.15875 132.41625 47.9425 132.4575 48.75 132.5 C51.53616119 132.66228734 51.53616119 132.66228734 53.375 130.375 C53.54187448 127.79145782 53.54187448 127.79145782 53.375 125.375 C55.0765625 124.694375 55.0765625 124.694375 56.8125 124 C60.42221692 122.80404194 60.42221692 122.80404194 61.375 120.375 C61.09387936 118.36699544 60.76432033 116.36485949 60.375 114.375 C62.025 114.375 63.675 114.375 65.375 114.375 C66.17453138 111.08803767 66.47158936 109.66476808 65.375 106.375 C65.705 105.715 66.035 105.055 66.375 104.375 C67.695 104.045 69.015 103.715 70.375 103.375 C70.045 100.405 69.715 97.435 69.375 94.375 C70.695 93.715 72.015 93.055 73.375 92.375 C73.045 90.725 72.715 89.075 72.375 87.375 C71.715 87.375 71.055 87.375 70.375 87.375 C70.6875 85 70.6875 85 71.375 82.375 C72.365 81.715 73.355 81.055 74.375 80.375 C74.02713292 78.39963255 74.02713292 78.39963255 73.375 76.375 C72.715 76.045 72.055 75.715 71.375 75.375 C70.75 72.8125 70.75 72.8125 70.375 70.375 C71.365 70.045 72.355 69.715 73.375 69.375 C73.045 68.055 72.715 66.735 72.375 65.375 C71.055 65.045 69.735 64.715 68.375 64.375 C69.035 61.405 69.695 58.435 70.375 55.375 C68.725 55.045 67.075 54.715 65.375 54.375 C65.66796875 52.35677083 65.9609375 50.33854167 66.25390625 48.3203125 C66.5434297 46.29359333 66.5434297 46.29359333 65.375 44.375 C63.725 44.375 62.075 44.375 60.375 44.375 C60.44010417 42.35677083 60.50520833 40.33854167 60.5703125 38.3203125 C60.55831689 36.13636355 60.55831689 36.13636355 58.375 34.375 C55.80438689 33.72732207 55.80438689 33.72732207 53.375 33.375 C53.41625 32.59125 53.4575 31.8075 53.5 31 C53.66228734 28.21383881 53.66228734 28.21383881 51.375 26.375 C49.38678687 25.97735737 47.38555661 25.63724651 45.375 25.375 C45.08625 24.405625 44.7975 23.43625 44.5 22.4375 C43.73285318 19.26835797 43.73285318 19.26835797 41.375 18.375 C39.36699544 18.65612064 37.36485949 18.98567967 35.375 19.375 C34.88 16.9 34.88 16.9 34.375 14.375 C31.36468256 13.44076355 30.50849732 13.33050089 27.375 14.375 C26.385 13.88 26.385 13.88 25.375 13.375 C24.88 11.395 24.88 11.395 24.375 9.375 C19.92 9.87 19.92 9.87 15.375 10.375 C14.385 8.395 14.385 8.395 13.375 6.375 C11.725 6.705 10.075 7.035 8.375 7.375 C8.375 8.035 8.375 8.695 8.375 9.375 C6 9.0625 6 9.0625 3.375 8.375 C2.385 6.89 2.385 6.89 1.375 5.375 C0.385 5.375 -0.605 5.375 -1.625 5.375 Z M0.375 17.375 C0.45878906 18.13425781 0.54257813 18.89351562 0.62890625 19.67578125 C0.73074219 20.66964844 0.83257812 21.66351563 0.9375 22.6875 C1.04191406 23.67363281 1.14632812 24.65976563 1.25390625 25.67578125 C1.375 28.375 1.375 28.375 0.375 31.375 C2.42336882 30.81137698 2.42336882 30.81137698 4.375 29.375 C5.56011083 26.60364106 5.56011083 26.60364106 5.375 23.375 C3.63151307 20.0080885 3.63151307 20.0080885 1.375 17.375 C1.045 17.375 0.715 17.375 0.375 17.375 Z M-2.625 20.375 C-3.83797649 22.6556707 -3.83797649 22.6556707 -4.625 25.375 C-3.85896041 27.6607711 -3.85896041 27.6607711 -2.625 29.375 C-1.965 28.715 -1.305 28.055 -0.625 27.375 C-0.94826553 23.77820934 -0.94826553 23.77820934 -1.625 20.375 C-1.955 20.375 -2.285 20.375 -2.625 20.375 Z M-1.625 52.375 C2.375 53.375 2.375 53.375 2.375 53.375 Z M-35.625 54.375 C-39.37582476 72.97665126 -36.28049433 91.63158474 -27.625 108.375 C-26.635 108.375 -25.645 108.375 -24.625 108.375 C-25.13103992 106.20625748 -25.62483813 104.37532373 -26.625 102.375 C-26.98055556 94.90833333 -26.98055556 94.90833333 -24.625 91.375 C-24.94230524 87.73560068 -24.94230524 87.73560068 -25.625 84.375 C-26.615 84.045 -27.605 83.715 -28.625 83.375 C-28.955 81.395 -29.285 79.415 -29.625 77.375 C-0.42 77.87 -0.42 77.87 29.375 78.375 C29.375 80.025 29.375 81.675 29.375 83.375 C28.385 83.375 27.395 83.375 26.375 83.375 C25.29740724 88.72404632 25.29740724 88.72404632 26.375 93.875 C28.24146674 98.54116684 26.75307357 103.65017634 25.375 108.375 C26.365 108.375 27.355 108.375 28.375 108.375 C36.10094328 93.71470598 39.51273335 76.91099624 37.375 60.375 C36.385 57.405 36.385 57.405 35.375 54.375 C29.105 55.695 22.835 57.015 16.375 58.375 C17.32375 59.674375 18.2725 60.97375 19.25 62.3125 C22.38011337 66.963376 23.5011678 70.86985714 24.375 76.375 C22.065 76.375 19.755 76.375 17.375 76.375 C17.2925 75.158125 17.21 73.94125 17.125 72.6875 C16.46505292 67.4995827 14.24714996 64.91677055 10.25 61.625 C4.65758201 59.19351392 -0.5940465 58.77570225 -6.4375 60.5 C-10.94587294 63.15198408 -14.87971657 66.29781184 -16.625 71.375 C-16.79250414 74.04209069 -16.79250414 74.04209069 -16.625 76.375 C-18.935 76.375 -21.245 76.375 -23.625 76.375 C-22.62803347 70.47190872 -21.32576818 66.23225824 -17.625 61.375 C-16.965 60.385 -16.305 59.395 -15.625 58.375 C-18.39489964 57.70423511 -21.16579742 57.03823683 -23.9375 56.375 C-24.72318359 56.18421875 -25.50886719 55.9934375 -26.31835938 55.796875 C-27.07568359 55.61640625 -27.83300781 55.4359375 -28.61328125 55.25 C-29.30977783 55.08242187 -30.00627441 54.91484375 -30.72387695 54.7421875 C-32.79321738 54.28018116 -32.79321738 54.28018116 -35.625 54.375 Z M-15.625 80.375 C-14.26481009 83.49463955 -12.79239866 85.38334822 -10.1875 87.5625 C-9.59066406 88.07167969 -8.99382812 88.58085937 -8.37890625 89.10546875 C-4.52327625 91.89629225 -0.19709301 91.85307056 4.375 91.375 C9.08466633 89.62041843 11.99452477 87.05375246 15.375 83.375 C15.045 82.715 14.715 82.055 14.375 81.375 C13.50875 81.87 12.6425 82.365 11.75 82.875 C5.24109626 85.63996114 -2.8448891 85.54866347 -9.53125 83.47265625 C-11.63950496 82.5352834 -13.64119033 81.55059092 -15.625 80.375 Z M-16.625 86.375 C-16.6832253 89.45825358 -16.71867134 92.54136505 -16.75 95.625 C-16.76675781 96.49769531 -16.78351563 97.37039062 -16.80078125 98.26953125 C-16.80722656 99.11386719 -16.81367188 99.95820313 -16.8203125 100.828125 C-16.83078613 101.60317383 -16.84125977 102.37822266 -16.85205078 103.17675781 C-16.59753655 105.64089349 -15.73845241 107.1862771 -14.625 109.375 C-14.91576962 112.16638838 -15.41355286 114.69836914 -16.25 117.375 C-16.77711371 120.18627313 -16.19291744 122.59851473 -15.625 125.375 C-11.665 125.375 -7.705 125.375 -3.625 125.375 C-3.37664217 121.07038574 -3.19587696 116.76961433 -3.07568359 112.45996094 C-3.02557045 110.99665702 -2.95744847 109.53384969 -2.87060547 108.07226562 C-2.59917527 103.38450646 -2.52121963 98.979606 -3.625 94.375 C-6.58198411 91.28730573 -9.68300296 89.89777741 -13.625 88.375 C-14.615 87.715 -15.605 87.055 -16.625 86.375 Z M10.48046875 90.96484375 C8.375 92.375 8.375 92.375 4.375 93.375 C4.375 103.935 4.375 114.495 4.375 125.375 C8.335 125.375 12.295 125.375 16.375 125.375 C16.684375 123.209375 16.684375 123.209375 17 121 C17.11601562 120.18789062 17.23203125 119.37578125 17.3515625 118.5390625 C17.35929687 117.82492188 17.36703125 117.11078125 17.375 116.375 C16.715 115.715 16.055 115.055 15.375 114.375 C15.125 110.875 15.125 110.875 15.375 107.375 C16.035 106.715 16.695 106.055 17.375 105.375 C17.65186065 103.34032566 17.65186065 103.34032566 17.5703125 101.0234375 C17.56386719 100.17265625 17.55742187 99.321875 17.55078125 98.4453125 C17.53402344 97.55585938 17.51726562 96.66640625 17.5 95.75 C17.49097656 94.8528125 17.48195313 93.955625 17.47265625 93.03125 C17.4490497 90.81223414 17.4161231 88.59374923 17.375 86.375 C14.95972672 86.375 12.30682213 89.51541133 10.48046875 90.96484375 Z M-20.625 90.375 C-23.16406064 92.98873889 -24.54756852 94.50389581 -24.875 98.1875 C-24.7925 98.909375 -24.71 99.63125 -24.625 100.375 C-21.97747996 97.79715154 -19.68067935 95.45851902 -17.625 92.375 C-17.955 91.715 -18.285 91.055 -18.625 90.375 C-19.285 90.375 -19.945 90.375 -20.625 90.375 Z M19.375 90.375 C19.84702486 94.62322374 22.34155518 96.57489709 25.375 99.375 C24.8489075 95.58713403 23.99396089 93.20347776 21.375 90.375 C20.715 90.375 20.055 90.375 19.375 90.375 Z M17.375 109.375 C17.69657204 112.34954134 17.99639742 113.96835278 20.0625 116.1875 C23.03168891 117.71221863 25.07978441 117.73317561 28.375 117.375 C29.035 116.715 29.695 116.055 30.375 115.375 C30.045 115.045 29.715 114.715 29.375 114.375 C30.695 113.385 32.015 112.395 33.375 111.375 C32.01955078 111.28412109 32.01955078 111.28412109 30.63671875 111.19140625 C29.45722656 111.10761719 28.27773437 111.02382812 27.0625 110.9375 C25.89074219 110.85628906 24.71898437 110.77507812 23.51171875 110.69140625 C20.375 110.375 20.375 110.375 17.375 109.375 Z M-20.625 110.375 C-22.6624763 110.60358114 -24.70540303 110.78524278 -26.75 110.9375 C-27.84570312 111.02128906 -28.94140625 111.10507813 -30.0703125 111.19140625 C-30.91335937 111.25199219 -31.75640625 111.31257813 -32.625 111.375 C-31.305 112.365 -29.985 113.355 -28.625 114.375 C-28.955 115.035 -29.285 115.695 -29.625 116.375 C-26.73638291 117.81930855 -24.82852299 117.75188506 -21.625 117.375 C-18.68645926 115.18697419 -18.68645926 115.18697419 -16.625 112.375 C-16.625 111.385 -16.625 110.395 -16.625 109.375 C-18.6995356 109.2259288 -18.6995356 109.2259288 -20.625 110.375 Z M9.375 132.375 C10.375 136.375 10.375 136.375 10.375 136.375 Z M-2.625 137.375 C-1.625 139.375 -1.625 139.375 -1.625 139.375 Z M14.375 147.375 C13.01672029 149.02139965 11.68245749 150.68795807 10.375 152.375 C11.695 152.045 13.015 151.715 14.375 151.375 C14.705 150.055 15.035 148.735 15.375 147.375 C15.045 147.375 14.715 147.375 14.375 147.375 Z M-12.625 149.375 C-12.625 150.365 -12.625 151.355 -12.625 152.375 C-11.635 152.045 -10.645 151.715 -9.625 151.375 C-10.615 150.715 -11.605 150.055 -12.625 149.375 Z " fill="#B2A268" transform="translate(145.625,44.625)"/>
<path d="M0 0 C1.23919189 0.00563965 2.47838379 0.0112793 3.75512695 0.01708984 C12.63387579 0.13487452 20.7069253 0.73400934 29.25 3.3125 C30.25498535 3.61051514 30.25498535 3.61051514 31.28027344 3.91455078 C58.54008438 12.18166746 81.52141755 30.2571502 95.48046875 55.203125 C108.94899598 80.41161502 113.20331324 111.4270757 104.97753906 139.06494141 C98.87015175 157.93225941 89.20432688 173.31664238 75.25 187.3125 C74.569375 188.01632813 73.88875 188.72015625 73.1875 189.4453125 C51.2810499 210.58161396 22.53815381 216.79173254 -6.82421875 216.52734375 C-14.47361204 216.36241107 -21.38284059 215.47982566 -28.75 213.3125 C-29.97074219 212.9721875 -31.19148438 212.631875 -32.44921875 212.28125 C-59.06401935 204.18466112 -81.49513503 185.72038775 -94.98046875 161.38671875 C-103.88936704 144.58092375 -108.15165094 127.81389984 -108.125 108.75 C-108.12445618 108.09119843 -108.12391235 107.43239685 -108.12335205 106.75363159 C-108.0818949 95.80115002 -107.20520813 85.7175674 -103.75 75.3125 C-103.53569336 74.6632959 -103.32138672 74.0140918 -103.10058594 73.34521484 C-97.80299275 57.8804068 -89.69697598 45.2943452 -78.75 33.3125 C-78.09386719 32.57386719 -77.43773438 31.83523437 -76.76171875 31.07421875 C-57.21245791 10.185394 -28.09112701 -0.13375817 0 0 Z M-66.75 31.3125 C-67.34039062 31.75722656 -67.93078125 32.20195313 -68.5390625 32.66015625 C-86.25892613 46.39095105 -97.99759098 71.11940014 -101.28125 92.9140625 C-104.56360627 119.83187051 -98.73280689 146.15184921 -82.671875 168.16015625 C-80.74910605 170.59297269 -78.76498794 172.95598868 -76.75 175.3125 C-76.3065625 175.9003125 -75.863125 176.488125 -75.40625 177.09375 C-60.71326928 196.08711532 -35.33220891 206.48617541 -12.36279297 209.98291016 C13.21832699 213.20983147 39.36022985 206.38413372 60.25 191.3125 C64.51100513 187.91401667 68.37696042 184.13963689 72.25 180.3125 C73.32314453 179.34763672 73.32314453 179.34763672 74.41796875 178.36328125 C91.6683305 162.49019389 101.48790554 137.0482036 102.48828125 113.95703125 C103.13338225 86.06147535 94.90361561 60.06729616 75.4765625 39.60546875 C74.37441406 38.47044922 74.37441406 38.47044922 73.25 37.3125 C72.57710937 36.56613281 71.90421875 35.81976563 71.2109375 35.05078125 C54.78186279 17.42183029 29.80286114 7.10999607 5.89453125 6.07421875 C-21.63829781 5.44049267 -45.57953621 13.44759985 -66.75 31.3125 Z " fill="#B2A268" transform="translate(145.75,15.6875)"/>
<path d="M0 0 C2.22265625 1.38671875 2.22265625 1.38671875 4.22265625 4.38671875 C4.453125 7.48828125 4.453125 7.48828125 4.41015625 11.01171875 C4.40371094 12.17960937 4.39726562 13.3475 4.390625 14.55078125 C4.22265625 17.38671875 4.22265625 17.38671875 3.22265625 18.38671875 C1.36978123 18.45898377 -0.48568253 18.47053095 -2.33984375 18.44921875 C-3.35175781 18.44019531 -4.36367188 18.43117188 -5.40625 18.421875 C-6.18871094 18.41027344 -6.97117187 18.39867188 -7.77734375 18.38671875 C-7.93203125 16.71609375 -7.93203125 16.71609375 -8.08984375 15.01171875 C-8.31671875 13.81546875 -8.54359375 12.61921875 -8.77734375 11.38671875 C-13.09646029 8.50730772 -17.15688111 7.91681349 -22.1953125 8.8203125 C-26.00173735 9.91939439 -28.22697128 10.7159523 -30.77734375 13.82421875 C-33.20350466 20.04125609 -33.03290764 26.02453811 -33.08984375 32.63671875 C-33.11884766 33.74402344 -33.14785156 34.85132813 -33.17773438 35.9921875 C-33.23152007 42.95122858 -32.55782355 47.48889074 -28.77734375 53.38671875 C-24.60925353 56.32890008 -18.71386581 55.91122422 -13.77734375 55.38671875 C-12.12734375 54.72671875 -10.47734375 54.06671875 -8.77734375 53.38671875 C-8.44734375 48.76671875 -8.11734375 44.14671875 -7.77734375 39.38671875 C-11.73734375 39.38671875 -15.69734375 39.38671875 -19.77734375 39.38671875 C-19.77734375 35.75671875 -19.77734375 32.12671875 -19.77734375 28.38671875 C-15.79813281 28.35989261 -11.81910034 28.33996482 -7.83984375 28.32421875 C-6.70353516 28.31583984 -5.56722656 28.30746094 -4.39648438 28.29882812 C-3.31689453 28.29560547 -2.23730469 28.29238281 -1.125 28.2890625 C0.3753479 28.28120728 0.3753479 28.28120728 1.90600586 28.27319336 C4.22265625 28.38671875 4.22265625 28.38671875 5.22265625 29.38671875 C5.56136683 33.72957751 5.62221075 38.07799391 5.68261719 42.43212891 C5.70918589 43.89502776 5.75007153 45.35774062 5.80566406 46.81982422 C6.26160462 58.95168836 6.26160462 58.95168836 3.734375 62.44238281 C-4.65368994 68.54801113 -16.03913847 69.20338055 -26.03515625 68.1484375 C-32.16194116 67.09172721 -37.18119133 64.59602067 -41.77734375 60.38671875 C-47.09030745 52.64413529 -47.0246831 44.6869249 -47.07250977 35.6105957 C-47.08397147 34.0987813 -47.1043303 32.58700549 -47.1340332 31.07543945 C-47.33520779 20.82902195 -47.23752736 11.62743449 -40.27734375 3.44921875 C-39.45234375 2.76859375 -38.62734375 2.08796875 -37.77734375 1.38671875 C-37.15859375 0.82984375 -36.53984375 0.27296875 -35.90234375 -0.30078125 C-25.54837426 -6.69588005 -10.49691708 -4.80807894 0 0 Z " fill="#143156" transform="translate(343.77734375,47.61328125)"/>
<path d="M0 0 C1.11246094 -0.01675781 2.22492187 -0.03351562 3.37109375 -0.05078125 C6.84742148 0.34493292 8.73409635 1.30882714 11.5625 3.3125 C11.8925 2.6525 12.2225 1.9925 12.5625 1.3125 C18.5025 1.3125 24.4425 1.3125 30.5625 1.3125 C30.66015625 9.02734375 30.66015625 9.02734375 30.5625 11.3125 C29.5625 12.3125 29.5625 12.3125 27 12.375 C26.195625 12.354375 25.39125 12.33375 24.5625 12.3125 C24.58344727 13.53767334 24.60439453 14.76284668 24.62597656 16.02514648 C24.6987981 20.60412748 24.74445214 25.18305807 24.78222656 29.76245117 C24.80224646 31.7381249 24.82947092 33.71374009 24.86425781 35.68920898 C24.91320207 38.5416515 24.93556525 41.39330549 24.953125 44.24609375 C24.97377014 45.11834091 24.99441528 45.99058807 25.01568604 46.88926697 C25.01827629 54.092643 23.35825636 60.36142384 18.3125 65.6875 C10.51705103 70.29390166 2.97800243 71.75012021 -6 69.73828125 C-13.77609938 67.32103983 -13.77609938 67.32103983 -16.4375 64.3125 C-17 61.9375 -17 61.9375 -16.4375 59.3125 C-14.25 56.4375 -14.25 56.4375 -11.4375 54.3125 C-8.1757474 54.3125 -6.44701045 55.30700507 -3.625 56.9375 C0.73865183 58.81985961 2.94821319 58.37151665 7.5625 57.3125 C9.64583333 56.39583333 9.64583333 56.39583333 10.5625 54.3125 C11.09255137 51.63044009 11.33825685 49.04826644 11.5625 46.3125 C10.52416016 47.04146484 10.52416016 47.04146484 9.46484375 47.78515625 C4.41881603 50.44060287 -0.87760096 49.94271526 -6.4375 49.3125 C-11.71975858 46.81037752 -15.24853634 43.13949633 -17.5234375 37.73046875 C-18.67562118 33.4220896 -18.82122918 29.44184558 -18.8125 25 C-18.81088867 24.15493896 -18.80927734 23.30987793 -18.80761719 22.43920898 C-18.65948625 14.92882541 -17.23522245 9.72222424 -12.4375 3.875 C-8.30926687 0.64981787 -5.2601842 0.01824341 0 0 Z M-2.75 12.9375 C-6.20539079 17.80064259 -6.944892 22.42675275 -6.4375 28.3125 C-5.22845729 32.87539407 -4.45759051 35.63243966 -0.4375 38.3125 C3.42092024 38.73341857 5.64693264 38.95587166 8.875 36.6875 C12.33039079 31.82435741 13.069892 27.19824725 12.5625 21.3125 C11.35345729 16.74960593 10.58259051 13.99256034 6.5625 11.3125 C2.70407976 10.89158143 0.47806736 10.66912834 -2.75 12.9375 Z " fill="#143156" transform="translate(514.4375,63.6875)"/>
<path d="M0 0 C0.763125 0.495 1.52625 0.99 2.3125 1.5 C2.6425 0.84 2.9725 0.18 3.3125 -0.5 C6.12506281 -0.52684312 8.93737241 -0.54676188 11.75 -0.5625 C12.55244141 -0.57087891 13.35488281 -0.57925781 14.18164062 -0.58789062 C16.22545221 -0.5965143 18.26933902 -0.5522815 20.3125 -0.5 C21.3125 0.5 21.3125 0.5 21.4453125 2.53125 C21.44273437 3.3459375 21.44015625 4.160625 21.4375 5 C21.44136719 6.22203125 21.44136719 6.22203125 21.4453125 7.46875 C21.3125 9.5 21.3125 9.5 20.3125 10.5 C18.64632885 10.54063832 16.97861905 10.542721 15.3125 10.5 C15.32821045 11.70011719 15.3439209 12.90023437 15.36010742 14.13671875 C15.41467456 18.61695566 15.44894707 23.09716355 15.47729492 27.57763672 C15.49232075 29.51160635 15.51274726 31.44554226 15.53881836 33.37939453 C15.57547591 36.16968136 15.59228868 38.95951511 15.60546875 41.75 C15.62095261 42.60553467 15.63643646 43.46106934 15.65238953 44.3425293 C15.65427584 51.17082502 14.19983537 56.30604784 10.6875 62.25 C5.47542848 67.18775197 -0.01357167 68.75680257 -7.125 69 C-13.87823904 68.79391524 -20.76856608 67.41893392 -25.6875 62.5 C-25.58584392 58.73872509 -24.69670966 57.51010816 -22.125 54.6875 C-21.320625 53.965625 -20.51625 53.24375 -19.6875 52.5 C-14.95065789 54.34210526 -14.95065789 54.34210526 -12.8125 55.625 C-8.61173199 57.35472801 -3.95559213 56.86578948 0.3125 55.5 C1.50537411 51.62315913 2.3125 48.58378077 2.3125 44.5 C1.79300781 44.98597656 1.27351562 45.47195312 0.73828125 45.97265625 C-4.10185374 49.02014865 -10.18017275 48.05261664 -15.6875 47.5 C-20.07730976 46.26467665 -22.70640877 43.85768458 -25.0625 40 C-27.71922083 34.27783206 -27.89914108 29.47373424 -27.9375 23.25 C-27.958125 22.42886719 -27.97875 21.60773438 -28 20.76171875 C-28.04097029 14.29865589 -27.26288595 8.58460999 -22.96875 3.44140625 C-22.3809375 2.98636719 -21.793125 2.53132812 -21.1875 2.0625 C-20.30578125 1.35287109 -20.30578125 1.35287109 -19.40625 0.62890625 C-13.82886525 -3.03442146 -5.91136392 -2.40462261 0 0 Z M-12.6875 11.5 C-15.69573193 16.76440588 -16.4941543 21.48193434 -15.6875 27.5 C-14.63981787 31.03928516 -13.33245131 33.85504869 -10.6875 36.5 C-5.33249725 36.9392881 -5.33249725 36.9392881 -0.3125 35.4375 C3.39887038 31.01240454 3.49339951 26.41103499 3.1875 20.875 C2.64126271 16.35612785 2.03133346 13.43592115 -1.6875 10.5 C-5.82308489 9.39225405 -9.27866812 8.5781441 -12.6875 11.5 Z " fill="#143156" transform="translate(820.6875,153.5)"/>
<path d="M0 0 C1.58206422 0.00574487 3.16410406 0.01876032 4.74609375 0.03515625 C7.53046875 0.05578125 10.31484375 0.07640625 13.18359375 0.09765625 C13.51359375 7.35765625 13.84359375 14.61765625 14.18359375 22.09765625 C16.16359375 21.10765625 18.14359375 20.11765625 20.18359375 19.09765625 C25.29858342 18.2900263 30.44695476 18.31507173 35.12109375 20.72265625 C39.47059789 24.09574109 42.18047204 27.66130562 43.18359375 33.09765625 C43.26450467 35.12234336 43.29118274 37.14950244 43.28125 39.17578125 C43.27802734 40.3359375 43.27480469 41.49609375 43.27148438 42.69140625 C43.25891602 44.50125 43.25891602 44.50125 43.24609375 46.34765625 C43.24158203 47.5696875 43.23707031 48.79171875 43.23242188 50.05078125 C43.2206419 53.06645571 43.20419228 56.08203123 43.18359375 59.09765625 C43.98796875 59.07703125 44.79234375 59.05640625 45.62109375 59.03515625 C48.18359375 59.09765625 48.18359375 59.09765625 49.18359375 60.09765625 C49.28149945 61.59503749 49.31334239 63.09708517 49.30859375 64.59765625 C49.31246094 65.8196875 49.31246094 65.8196875 49.31640625 67.06640625 C49.18359375 69.09765625 49.18359375 69.09765625 48.18359375 70.09765625 C46.47587017 70.18479456 44.76460726 70.20465632 43.0546875 70.1953125 C42.02021484 70.19208984 40.98574219 70.18886719 39.91992188 70.18554688 C38.83130859 70.17716797 37.74269531 70.16878906 36.62109375 70.16015625 C34.98237305 70.15338867 34.98237305 70.15338867 33.31054688 70.14648438 C30.60153943 70.13465465 27.89255995 70.11671856 25.18359375 70.09765625 C25.18359375 66.46765625 25.18359375 62.83765625 25.18359375 59.09765625 C27.65859375 58.60265625 27.65859375 58.60265625 30.18359375 58.09765625 C30.26508967 55.07627058 30.32432796 52.0571172 30.37109375 49.03515625 C30.39623047 48.18759766 30.42136719 47.34003906 30.44726562 46.46679688 C30.51161805 40.91103775 29.98968748 36.95039632 27.18359375 32.09765625 C23.70010025 31.02094008 21.41124907 30.79903739 17.87109375 31.66015625 C15.32188115 33.83170773 15.01377912 35.85238615 14.18359375 39.09765625 C13.95353053 42.39475648 13.99392685 45.66966979 14.05859375 48.97265625 C14.06761719 49.85179687 14.07664062 50.7309375 14.0859375 51.63671875 C14.10934798 53.79048335 14.14521365 55.94410639 14.18359375 58.09765625 C15.83359375 58.42765625 17.48359375 58.75765625 19.18359375 59.09765625 C19.18359375 62.72765625 19.18359375 66.35765625 19.18359375 70.09765625 C15.37104752 70.12448417 11.55868763 70.14441102 7.74609375 70.16015625 C6.65748047 70.16853516 5.56886719 70.17691406 4.44726562 70.18554688 C3.41279297 70.18876953 2.37832031 70.19199219 1.3125 70.1953125 C0.3541626 70.20054932 -0.6041748 70.20578613 -1.59155273 70.21118164 C-3.81640625 70.09765625 -3.81640625 70.09765625 -4.81640625 69.09765625 C-4.91431195 67.60027501 -4.94615489 66.09822733 -4.94140625 64.59765625 C-4.94398438 63.78296875 -4.9465625 62.96828125 -4.94921875 62.12890625 C-4.81640625 60.09765625 -4.81640625 60.09765625 -3.81640625 59.09765625 C-2.16640625 59.09765625 -0.51640625 59.09765625 1.18359375 59.09765625 C1.18359375 43.25765625 1.18359375 27.41765625 1.18359375 11.09765625 C-0.46640625 11.09765625 -2.11640625 11.09765625 -3.81640625 11.09765625 C-4.81640625 10.09765625 -4.81640625 10.09765625 -4.94921875 8.06640625 C-4.94664062 7.25171875 -4.9440625 6.43703125 -4.94140625 5.59765625 C-4.94398438 4.78296875 -4.9465625 3.96828125 -4.94921875 3.12890625 C-4.70910856 -0.54336727 -3.86340427 0.09885886 0 0 Z " fill="#143156" transform="translate(554.81640625,132.90234375)"/>
<path d="M0 0 C7.28421977 -0.02255606 14.56842059 -0.04091801 21.85266781 -0.05181217 C25.23471813 -0.05703975 28.6167434 -0.06413511 31.9987793 -0.07543945 C35.88329777 -0.08834267 39.76780597 -0.09322924 43.65234375 -0.09765625 C44.87211411 -0.10281754 46.09188446 -0.10797882 47.34861755 -0.11329651 C49.03024742 -0.11340981 49.03024742 -0.11340981 50.74584961 -0.11352539 C51.73846298 -0.115746 52.73107635 -0.11796661 53.75376892 -0.12025452 C56 0 56 0 57 1 C57.08631874 2.34267413 57.10706473 3.68974322 57.09765625 5.03515625 C57.09443359 5.84404297 57.09121094 6.65292969 57.08789062 7.48632812 C57.07532227 8.7615332 57.07532227 8.7615332 57.0625 10.0625 C57.05798828 10.91650391 57.05347656 11.77050781 57.04882812 12.65039062 C57.03700373 14.76695663 57.01906769 16.88348685 57 19 C55.18757948 19.02687279 53.37504767 19.04633715 51.5625 19.0625 C50.55316406 19.07410156 49.54382813 19.08570313 48.50390625 19.09765625 C46 19 46 19 45 18 C44.95919217 16.00041636 44.95745644 13.99954746 45 12 C41.7 12 38.4 12 35 12 C35 27.51 35 43.02 35 59 C36.98 59 38.96 59 41 59 C42 60 42 60 42.1328125 62.03125 C42.13023437 62.8459375 42.12765625 63.660625 42.125 64.5 C42.12886719 65.72203125 42.12886719 65.72203125 42.1328125 66.96875 C42 69 42 69 41 70 C39.15840977 70.09959621 37.31303033 70.13080411 35.46875 70.1328125 C34.34855469 70.13410156 33.22835937 70.13539063 32.07421875 70.13671875 C30.89472656 70.13285156 29.71523438 70.12898438 28.5 70.125 C26.73076172 70.13080078 26.73076172 70.13080078 24.92578125 70.13671875 C23.80558594 70.13542969 22.68539063 70.13414062 21.53125 70.1328125 C20.49548828 70.13168457 19.45972656 70.13055664 18.39257812 70.12939453 C16 70 16 70 15 69 C14.92794489 67.31391034 14.91613932 65.62499341 14.9375 63.9375 C14.94652344 63.01839844 14.95554687 62.09929687 14.96484375 61.15234375 C14.97644531 60.44207031 14.98804688 59.73179687 15 59 C17.31 59 19.62 59 22 59 C22 43.49 22 27.98 22 12 C18.37 12 14.74 12 11 12 C11 14.31 11 16.62 11 19 C7.37 19 3.74 19 0 19 C0 12.73 0 6.46 0 0 Z " fill="#143156" transform="translate(398,133)"/>
<path d="M0 0 C4.27944548 3.95848707 7.26888371 7.13925415 7.70532227 13.1315918 C7.76030884 14.80475464 7.76030884 14.80475464 7.81640625 16.51171875 C7.85830078 17.72021484 7.90019531 18.92871094 7.94335938 20.17382812 C7.98267578 21.43646484 8.02199219 22.69910156 8.0625 24 C8.10568359 25.27423828 8.14886719 26.54847656 8.19335938 27.86132812 C8.2995486 31.01160852 8.40159533 34.16196839 8.5 37.3125 C10.15 37.6425 11.8 37.9725 13.5 38.3125 C13.52688151 39.95824566 13.54634123 41.60411413 13.5625 43.25 C13.57410156 44.16652344 13.58570313 45.08304688 13.59765625 46.02734375 C13.5 48.3125 13.5 48.3125 12.5 49.3125 C10.87742456 49.4116657 9.25060169 49.44329777 7.625 49.4453125 C6.64015625 49.44660156 5.6553125 49.44789062 4.640625 49.44921875 C3.60421875 49.44535156 2.5678125 49.44148438 1.5 49.4375 C-0.05460938 49.44330078 -0.05460938 49.44330078 -1.640625 49.44921875 C-2.62546875 49.44792969 -3.6103125 49.44664063 -4.625 49.4453125 C-5.53507813 49.44418457 -6.44515625 49.44305664 -7.3828125 49.44189453 C-9.5 49.3125 -9.5 49.3125 -10.5 48.3125 C-10.57205511 46.62641034 -10.58386068 44.93749341 -10.5625 43.25 C-10.55347656 42.33089844 -10.54445313 41.41179687 -10.53515625 40.46484375 C-10.52355469 39.75457031 -10.51195312 39.04429688 -10.5 38.3125 C-8.025 37.8175 -8.025 37.8175 -5.5 37.3125 C-5.41254054 33.9168303 -5.35945556 30.52145227 -5.3125 27.125 C-5.28736328 26.16529297 -5.26222656 25.20558594 -5.23632812 24.21679688 C-5.11133021 17.2534463 -5.11133021 17.2534463 -8.5 11.3125 C-11.34083641 9.89208179 -13.35477278 9.99797728 -16.5 10.3125 C-19.18868498 12.39017554 -20.35529163 13.60811454 -21.04589844 16.96972656 C-21.07731934 18.44650879 -21.07731934 18.44650879 -21.109375 19.953125 C-21.14160156 21.02304688 -21.17382812 22.09296875 -21.20703125 23.1953125 C-21.22830078 24.86207031 -21.22830078 24.86207031 -21.25 26.5625 C-21.29447266 28.25246094 -21.29447266 28.25246094 -21.33984375 29.9765625 C-21.41048912 32.75528021 -21.46321277 35.53316148 -21.5 38.3125 C-20.695625 38.291875 -19.89125 38.27125 -19.0625 38.25 C-16.5 38.3125 -16.5 38.3125 -15.5 39.3125 C-15.4020943 40.80988124 -15.37025136 42.31192892 -15.375 43.8125 C-15.37113281 45.03453125 -15.37113281 45.03453125 -15.3671875 46.28125 C-15.5 48.3125 -15.5 48.3125 -16.5 49.3125 C-18.19558726 49.41182153 -19.89525747 49.44330007 -21.59375 49.4453125 C-22.62371094 49.44660156 -23.65367187 49.44789062 -24.71484375 49.44921875 C-26.34099609 49.44341797 -26.34099609 49.44341797 -28 49.4375 C-29.08410156 49.44136719 -30.16820312 49.44523437 -31.28515625 49.44921875 C-32.31511719 49.44792969 -33.34507812 49.44664063 -34.40625 49.4453125 C-35.35822266 49.44418457 -36.31019531 49.44305664 -37.29101562 49.44189453 C-39.5 49.3125 -39.5 49.3125 -40.5 48.3125 C-40.5979057 46.81511876 -40.62974864 45.31307108 -40.625 43.8125 C-40.62757813 42.9978125 -40.63015625 42.183125 -40.6328125 41.34375 C-40.5 39.3125 -40.5 39.3125 -39.5 38.3125 C-37.85 38.3125 -36.2 38.3125 -34.5 38.3125 C-34.5 29.0725 -34.5 19.8325 -34.5 10.3125 C-36.15 10.3125 -37.8 10.3125 -39.5 10.3125 C-40.5 9.3125 -40.5 9.3125 -40.6328125 7.28125 C-40.63023437 6.4665625 -40.62765625 5.651875 -40.625 4.8125 C-40.62757813 3.9978125 -40.63015625 3.183125 -40.6328125 2.34375 C-40.5 0.3125 -40.5 0.3125 -39.5 -0.6875 C-36.7205295 -0.76134353 -33.96614388 -0.77968149 -31.1875 -0.75 C-30.02831055 -0.74323242 -30.02831055 -0.74323242 -28.84570312 -0.73632812 C-27.39671311 -0.72760677 -25.94773299 -0.7168343 -24.4987793 -0.70336914 C-1.07309035 -0.51738285 -1.07309035 -0.51738285 0 0 Z " fill="#143156" transform="translate(719.5,65.6875)"/>
<path d="M0 0 C4.12593192 2.87855716 7.06537651 6.00862953 8.6875 10.875 C8.7708804 13.01294525 8.79483747 15.15342009 8.78515625 17.29296875 C8.78193359 18.54658203 8.77871094 19.80019531 8.77539062 21.09179688 C8.76282227 23.05729492 8.76282227 23.05729492 8.75 25.0625 C8.74498317 26.39778481 8.74042059 27.73307141 8.73632812 29.06835938 C8.72452695 32.33728473 8.70806297 35.60611991 8.6875 38.875 C10.6675 38.875 12.6475 38.875 14.6875 38.875 C14.71438151 40.52074566 14.73384123 42.16661413 14.75 43.8125 C14.76160156 44.72902344 14.77320313 45.64554688 14.78515625 46.58984375 C14.6875 48.875 14.6875 48.875 13.6875 49.875 C12.06492456 49.9741657 10.43810169 50.00579777 8.8125 50.0078125 C7.82765625 50.00910156 6.8428125 50.01039063 5.828125 50.01171875 C4.79171875 50.00785156 3.7553125 50.00398438 2.6875 50 C1.13289062 50.00580078 1.13289062 50.00580078 -0.453125 50.01171875 C-1.43796875 50.01042969 -2.4228125 50.00914062 -3.4375 50.0078125 C-4.34757813 50.00668457 -5.25765625 50.00555664 -6.1953125 50.00439453 C-8.3125 49.875 -8.3125 49.875 -9.3125 48.875 C-9.38455511 47.18891034 -9.39636068 45.49999341 -9.375 43.8125 C-9.36597656 42.89339844 -9.35695313 41.97429687 -9.34765625 41.02734375 C-9.33605469 40.31707031 -9.32445312 39.60679687 -9.3125 38.875 C-7.3325 38.875 -5.3525 38.875 -3.3125 38.875 C-3.3936599 35.31158719 -3.50647861 31.74985044 -3.625 28.1875 C-3.65883789 26.67639648 -3.65883789 26.67639648 -3.69335938 25.13476562 C-3.82505309 17.95508253 -3.82505309 17.95508253 -7.3125 11.875 C-10.66842863 10.53839855 -10.66842863 10.53839855 -14.3125 10.875 C-17.2292749 12.5763956 -17.2292749 12.5763956 -19.3125 15.875 C-20.06633044 19.80867868 -20.10302517 23.69052171 -20.125 27.6875 C-20.15013672 28.76193359 -20.17527344 29.83636719 -20.20117188 30.94335938 C-20.25993295 33.58760771 -20.29629376 36.23020488 -20.3125 38.875 C-19.508125 38.854375 -18.70375 38.83375 -17.875 38.8125 C-15.3125 38.875 -15.3125 38.875 -14.3125 39.875 C-14.2145943 41.37238124 -14.18275136 42.87442892 -14.1875 44.375 C-14.18363281 45.59703125 -14.18363281 45.59703125 -14.1796875 46.84375 C-14.3125 48.875 -14.3125 48.875 -15.3125 49.875 C-17.00808726 49.97432153 -18.70775747 50.00580007 -20.40625 50.0078125 C-21.43621094 50.00910156 -22.46617187 50.01039063 -23.52734375 50.01171875 C-25.15349609 50.00591797 -25.15349609 50.00591797 -26.8125 50 C-27.89660156 50.00386719 -28.98070312 50.00773437 -30.09765625 50.01171875 C-31.12761719 50.01042969 -32.15757812 50.00914062 -33.21875 50.0078125 C-34.17072266 50.00668457 -35.12269531 50.00555664 -36.10351562 50.00439453 C-38.3125 49.875 -38.3125 49.875 -39.3125 48.875 C-39.4104057 47.37761876 -39.44224864 45.87557108 -39.4375 44.375 C-39.44007813 43.5603125 -39.44265625 42.745625 -39.4453125 41.90625 C-39.3125 39.875 -39.3125 39.875 -38.3125 38.875 C-36.6625 38.875 -35.0125 38.875 -33.3125 38.875 C-33.3125 29.635 -33.3125 20.395 -33.3125 10.875 C-34.9625 10.875 -36.6125 10.875 -38.3125 10.875 C-39.3125 9.875 -39.3125 9.875 -39.4453125 7.84375 C-39.44273437 7.0290625 -39.44015625 6.214375 -39.4375 5.375 C-39.44007813 4.5603125 -39.44265625 3.745625 -39.4453125 2.90625 C-39.3125 0.875 -39.3125 0.875 -38.3125 -0.125 C-35.48833618 -0.25163091 -32.69955207 -0.31020548 -29.875 -0.3125 C-29.08544922 -0.32474609 -28.29589844 -0.33699219 -27.48242188 -0.34960938 C-25.42442565 -0.35487279 -23.36687991 -0.24706285 -21.3125 -0.125 C-20.6525 0.535 -19.9925 1.195 -19.3125 1.875 C-18.52875 1.38 -17.745 0.885 -16.9375 0.375 C-11.1865337 -2.00471019 -5.88594603 -1.99900054 0 0 Z " fill="#143156" transform="translate(647.3125,153.125)"/>
<path d="M0 0 C0.75522949 -0.01804688 1.51045898 -0.03609375 2.28857422 -0.0546875 C7.88190448 0.003665 12.28207581 1.34415956 16.9375 4.5 C20.69740668 9.35149249 21.06346027 13.79642362 21.03515625 19.796875 C21.03193359 21.00214844 21.02871094 22.20742187 21.02539062 23.44921875 C21.01282227 25.33060547 21.01282227 25.33060547 21 27.25 C20.99548828 28.51972656 20.99097656 29.78945312 20.98632812 31.09765625 C20.97454556 34.23181836 20.95809416 37.36588541 20.9375 40.5 C22.9175 40.5 24.8975 40.5 26.9375 40.5 C26.96438151 42.14574566 26.98384123 43.79161413 27 45.4375 C27.01160156 46.35402344 27.02320313 47.27054688 27.03515625 48.21484375 C26.9375 50.5 26.9375 50.5 25.9375 51.5 C23.27927343 51.62658222 20.65862576 51.68520214 18 51.6875 C16.8872168 51.70586914 16.8872168 51.70586914 15.75195312 51.72460938 C13.81236371 51.72988478 11.8732629 51.62188902 9.9375 51.5 C9.2775 50.84 8.6175 50.18 7.9375 49.5 C6.761875 49.995 5.58625 50.49 4.375 51 C-1.98118079 53.36118688 -7.78868824 53.12359401 -14.0625 50.5 C-18.30682709 47.22852991 -20.37244353 43.80835529 -21.125 38.5 C-21.32409325 33.64802369 -20.5606125 30.66352084 -18.0625 26.5 C-13.54497701 21.85699026 -8.46764234 20.61847992 -2.09765625 20.3046875 C-0.78667969 20.32789062 0.52429688 20.35109375 1.875 20.375 C2.55884766 20.38402344 3.24269531 20.39304687 3.94726562 20.40234375 C5.61083287 20.42561042 7.27421631 20.46146833 8.9375 20.5 C8.06582361 15.68957238 8.06582361 15.68957238 5.109375 12.0703125 C2.70255486 11.43830577 0.67344106 11.30188409 -1.8125 11.375 C-3.01132812 11.40207031 -3.01132812 11.40207031 -4.234375 11.4296875 C-5.13929688 11.46449219 -5.13929688 11.46449219 -6.0625 11.5 C-6.0625 13.48 -6.0625 15.46 -6.0625 17.5 C-7.87492052 17.52687279 -9.68745233 17.54633715 -11.5 17.5625 C-12.50933594 17.57410156 -13.51867187 17.58570312 -14.55859375 17.59765625 C-17.0625 17.5 -17.0625 17.5 -18.0625 16.5 C-18.13494053 14.48035801 -18.14627188 12.45832876 -18.125 10.4375 C-18.11597656 9.33277344 -18.10695313 8.22804688 -18.09765625 7.08984375 C-18.08605469 6.23519531 -18.07445312 5.38054687 -18.0625 4.5 C-12.00977836 0.91320199 -6.91100107 0.06799099 0 0 Z M-7.5234375 32.3515625 C-9.33852055 34.41609009 -9.33852055 34.41609009 -8.9375 37.125 C-8.19782087 39.64405125 -8.19782087 39.64405125 -6.0625 41.5 C-1.0285967 42.34640852 2.80261834 42.27171953 7.0625 39.375 C9.23944498 36.03701769 9.09905557 34.38810402 8.9375 30.5 C6.68856046 30.39176227 4.43812425 30.31430355 2.1875 30.25 C0.93453125 30.20359375 -0.3184375 30.1571875 -1.609375 30.109375 C-5.10970518 30.20947583 -5.10970518 30.20947583 -7.5234375 32.3515625 Z " fill="#143156" transform="translate(600.0625,63.5)"/>
<path d="M0 0 C1.58206057 0.00667536 3.16410534 0.0186375 4.74609375 0.03515625 C5.55240234 0.03966797 6.35871094 0.04417969 7.18945312 0.04882812 C9.18753131 0.06065107 11.18557158 0.07858711 13.18359375 0.09765625 C13.20341309 1.00008057 13.22323242 1.90250488 13.24365234 2.83227539 C13.3221454 6.20769383 13.40885043 9.58270023 13.50097656 12.95776367 C13.53905802 14.41341143 13.57394575 15.86914662 13.60546875 17.32495117 C13.6515763 19.42788773 13.70948922 21.530233 13.76953125 23.6328125 C13.8166626 25.52592163 13.8166626 25.52592163 13.86474609 27.45727539 C14.20144605 31.30148139 15.00848301 34.43832018 16.18359375 38.09765625 C21.22578387 39.20270514 21.22578387 39.20270514 26.05859375 37.78515625 C28.27318685 36.27040462 28.27318685 36.27040462 29.18359375 34.09765625 C29.33625987 32.35896881 29.43291971 30.61518124 29.5 28.87109375 C29.5628418 27.32421875 29.5628418 27.32421875 29.62695312 25.74609375 C29.66626953 24.66585937 29.70558594 23.585625 29.74609375 22.47265625 C29.81086914 20.84070313 29.81086914 20.84070313 29.87695312 19.17578125 C29.98323905 16.48320455 30.08527432 13.79053372 30.18359375 11.09765625 C29.37921875 11.11828125 28.57484375 11.13890625 27.74609375 11.16015625 C25.18359375 11.09765625 25.18359375 11.09765625 24.18359375 10.09765625 C24.08568805 8.60027501 24.05384511 7.09822733 24.05859375 5.59765625 C24.05472656 4.375625 24.05472656 4.375625 24.05078125 3.12890625 C24.18359375 1.09765625 24.18359375 1.09765625 25.18359375 0.09765625 C28.02694423 -0.0022135 30.84056538 -0.04112256 33.68359375 -0.02734375 C34.88048828 -0.03314453 34.88048828 -0.03314453 36.1015625 -0.0390625 C42.05698608 -0.02895142 42.05698608 -0.02895142 43.18359375 1.09765625 C43.27221367 3.90929005 43.2988173 6.6962388 43.28125 9.5078125 C43.27983505 10.34984726 43.2784201 11.19188202 43.27696228 12.05943298 C43.27134638 14.7597096 43.25879123 17.45990453 43.24609375 20.16015625 C43.2410808 21.98632693 43.23651754 23.81249891 43.23242188 25.63867188 C43.22137179 30.12503167 43.20409654 34.61133009 43.18359375 39.09765625 C45.16359375 39.09765625 47.14359375 39.09765625 49.18359375 39.09765625 C49.21047526 40.74340191 49.22993498 42.38927038 49.24609375 44.03515625 C49.25769531 44.95167969 49.26929688 45.86820313 49.28125 46.8125 C49.18359375 49.09765625 49.18359375 49.09765625 48.18359375 50.09765625 C45.35942993 50.22428716 42.57064582 50.28286173 39.74609375 50.28515625 C38.95654297 50.29740234 38.16699219 50.30964844 37.35351562 50.32226562 C35.2955194 50.32752904 33.23797366 50.2197191 31.18359375 50.09765625 C30.52359375 49.43765625 29.86359375 48.77765625 29.18359375 48.09765625 C28.17296875 48.59265625 27.16234375 49.08765625 26.12109375 49.59765625 C20.95621989 51.77999732 16.89903486 51.6596111 11.55859375 49.91015625 C7.03241908 47.47943282 4.01765844 45.15656105 2.05908203 40.32177734 C1.15494752 36.99216206 0.95420356 34.26606506 0.98828125 30.82421875 C0.99794922 29.09365234 0.99794922 29.09365234 1.0078125 27.328125 C1.02457031 26.13832031 1.04132812 24.94851562 1.05859375 23.72265625 C1.06761719 22.50964844 1.07664062 21.29664062 1.0859375 20.046875 C1.10942787 17.06359852 1.14227693 14.08073031 1.18359375 11.09765625 C0.37921875 11.11828125 -0.42515625 11.13890625 -1.25390625 11.16015625 C-3.81640625 11.09765625 -3.81640625 11.09765625 -4.81640625 10.09765625 C-4.91431195 8.60027501 -4.94615489 7.09822733 -4.94140625 5.59765625 C-4.94398438 4.78296875 -4.9465625 3.96828125 -4.94921875 3.12890625 C-4.70910856 -0.54336727 -3.86340427 0.09885886 0 0 Z " fill="#143156" transform="translate(874.81640625,64.90234375)"/>
<path d="M0 0 C3.47921735 -0.02683201 6.95823039 -0.0467567 10.4375 -0.0625 C11.92733398 -0.07506836 11.92733398 -0.07506836 13.44726562 -0.08789062 C14.39150391 -0.09111328 15.33574219 -0.09433594 16.30859375 -0.09765625 C17.62041626 -0.10551147 17.62041626 -0.10551147 18.95874023 -0.11352539 C21 0 21 0 22 1 C22.07179964 2.51928038 22.08392007 4.04167482 22.0625 5.5625 C22.05347656 6.38878906 22.04445313 7.21507812 22.03515625 8.06640625 C22.02355469 8.70449219 22.01195312 9.34257812 22 10 C20.35 10.33 18.7 10.66 17 11 C17.5053125 12.19238281 18.010625 13.38476562 18.53125 14.61328125 C19.18777854 16.17957077 19.84401329 17.74598347 20.5 19.3125 C20.83386719 20.09818359 21.16773438 20.88386719 21.51171875 21.69335938 C21.82753906 22.45068359 22.14335938 23.20800781 22.46875 23.98828125 C22.76201172 24.68477783 23.05527344 25.38127441 23.35742188 26.09887695 C24 28 24 28 24 31 C24.66 31 25.32 31 26 31 C26.17015625 30.39414063 26.3403125 29.78828125 26.515625 29.1640625 C28.31566942 22.94050468 30.49618433 16.97357039 33 11 C31.68 11 30.36 11 29 11 C29 7.37 29 3.74 29 0 C32.31255326 -0.02683436 35.62489183 -0.0467578 38.9375 -0.0625 C39.88302734 -0.07087891 40.82855469 -0.07925781 41.80273438 -0.08789062 C43.15141602 -0.09272461 43.15141602 -0.09272461 44.52734375 -0.09765625 C45.77632446 -0.10551147 45.77632446 -0.10551147 47.05053711 -0.11352539 C49 0 49 0 50 1 C50.07179964 2.51928038 50.08392007 4.04167482 50.0625 5.5625 C50.05347656 6.38878906 50.04445313 7.21507812 50.03515625 8.06640625 C50.02355469 8.70449219 50.01195312 9.34257812 50 10 C48.35 10.33 46.7 10.66 45 11 C44.90557617 11.63574951 44.81115234 12.27149902 44.71386719 12.92651367 C43.72811861 17.17055912 42.15607446 21.1202213 40.578125 25.17578125 C40.2362616 26.05977097 39.89439819 26.94376068 39.54217529 27.85453796 C38.81805262 29.7221482 38.09170314 31.58889637 37.36328125 33.45483398 C36.25924546 36.28876797 35.16838413 39.12753931 34.078125 41.96679688 C33.370596 43.78677123 32.6622874 45.60644274 31.953125 47.42578125 C31.63208801 48.26563065 31.31105103 49.10548004 30.98028564 49.97077942 C28.48934292 56.29480381 25.86985104 62.9128356 20.25 67 C15.97554258 68.31521767 12.463303 68.20287741 8 68 C8 64.37 8 60.74 8 57 C9.093125 56.79375 10.18625 56.5875 11.3125 56.375 C15.15881607 55.33358536 15.15881607 55.33358536 17 52.1875 C18.77758671 46.52144237 16.32356828 42.04146835 14.05859375 36.80078125 C13.77146011 36.12452194 13.48432648 35.44826263 13.18849182 34.75151062 C12.27596377 32.60323679 11.35733358 30.45765493 10.4375 28.3125 C9.51451445 26.15646532 8.59295893 23.99987304 7.67579651 21.84135437 C7.10617334 20.50100148 6.53314532 19.16208949 5.95640564 17.82478333 C4 13.22490946 4 13.22490946 4 11 C2.68 11 1.36 11 0 11 C0 7.37 0 3.74 0 0 Z " fill="#143156" transform="translate(846,153)"/>
<path d="M0 0 C1.77697266 -0.02513672 1.77697266 -0.02513672 3.58984375 -0.05078125 C9.9425675 0.6137894 13.96535404 3.55095199 18.0625 8.3125 C22.00315134 14.92716475 22.60411236 21.74585668 22.0625 29.3125 C21.0625 30.3125 21.0625 30.3125 18.10327148 30.42602539 C16.80977783 30.42078857 15.51628418 30.41555176 14.18359375 30.41015625 C13.15360008 30.40803383 13.15360008 30.40803383 12.10279846 30.40586853 C9.90182199 30.40025479 7.70094591 30.38770007 5.5 30.375 C4.01106917 30.36998676 2.52213676 30.36542355 1.03320312 30.36132812 C-2.62373075 30.35028093 -6.28060558 30.33300713 -9.9375 30.3125 C-7.81667559 35.71589338 -7.81667559 35.71589338 -3.82421875 39.63671875 C1.78226948 40.56283492 4.86992763 39.95777272 10.0625 37.3125 C13.1875 36.3125 13.1875 36.3125 16.0625 36.3125 C19 38.5 19 38.5 21.0625 41.3125 C20.984375 43.2890625 20.984375 43.2890625 20.0625 45.3125 C15.40603523 49.05696414 10.1049157 52.04978627 4.0625 52.3125 C2.804375 52.395 1.54625 52.4775 0.25 52.5625 C-5.46220098 52.43168624 -10.58522059 51.33832238 -14.9921875 47.54296875 C-22.43255277 39.46970933 -22.47041148 31.37464611 -22.25 20.91015625 C-21.95673443 14.84078086 -20.64084256 10.28247361 -16.51171875 5.74609375 C-11.44536663 1.1510302 -6.69293354 0.02180109 0 0 Z M-7.9375 13.3125 C-9.74685423 15.94428797 -9.9375 17.0736766 -9.9375 20.3125 C-3.6675 20.3125 2.6025 20.3125 9.0625 20.3125 C8.68546349 14.64736341 8.68546349 14.64736341 6.375 12.5 C0.86991939 9.67306671 -2.76048816 9.90037856 -7.9375 13.3125 Z " fill="#143156" transform="translate(378.9375,63.6875)"/>
<path d="M0 0 C5.96229907 3.57234796 8.2820599 7.72117969 10.5 14.375 C10.5 18.995 10.5 23.615 10.5 28.375 C0.27 28.375 -9.96 28.375 -20.5 28.375 C-18.31354284 35.24940577 -18.31354284 35.24940577 -14.375 37.4375 C-9.61125734 38.59001839 -6.05454071 38.12817351 -1.5 36.375 C-0.84 35.715 -0.18 35.055 0.5 34.375 C4.34177074 34.67829769 6.59427672 35.89975424 9.5 38.375 C9.23242331 41.58592031 8.75690343 43.09323495 6.5625 45.5 C-0.54421309 49.85104883 -8.62165863 51.74067527 -16.8203125 49.8359375 C-22.47703215 48.1370547 -26.51556759 45.94741238 -30.1875 41.1875 C-34.74271489 31.42632523 -34.74799101 20.10759866 -31.6796875 9.89453125 C-29.28933533 4.7893089 -25.11105503 1.65679065 -20.13671875 -0.78515625 C-13.82070617 -2.79692322 -6.07625958 -2.77771867 0 0 Z M-17.5 10.375 C-20.35213914 13.32548877 -20.5 14.08600137 -20.5 18.375 C-14.23 18.375 -7.96 18.375 -1.5 18.375 C-2.57726659 12.83241725 -2.57726659 12.83241725 -6.5 9.375 C-10.81011529 8.09113587 -13.57026582 8.14461033 -17.5 10.375 Z " fill="#143156" transform="translate(989.5,65.625)"/>
<path d="M0 0 C6.27276838 5.53233025 8.11225589 11.56104757 8.6875 19.8125 C8.77386719 20.95332031 8.86023438 22.09414062 8.94921875 23.26953125 C8.96597656 24.17058594 8.98273438 25.07164062 9 26 C8 27 8 27 5.04077148 27.11352539 C3.74727783 27.10828857 2.45378418 27.10305176 1.12109375 27.09765625 C0.09110008 27.09553383 0.09110008 27.09553383 -0.95970154 27.09336853 C-3.16067801 27.08775479 -5.36155409 27.07520007 -7.5625 27.0625 C-9.05143083 27.05748676 -10.54036324 27.05292355 -12.02929688 27.04882812 C-15.68623075 27.03778093 -19.34310558 27.02050713 -23 27 C-21.11937672 31.94559046 -21.11937672 31.94559046 -17.875 36 C-13.73680636 37.4393717 -10.21948137 37.04526315 -6 36 C-4.3170608 35.02763513 -2.64556566 34.03435556 -1 33 C1.8875882 33.08750267 2.99597465 33.99695379 5.3125 35.75 C7 38 7 38 7.125 40.5 C5.09768611 45.00514197 1.2927982 46.48288072 -3.125 48.25 C-10.99516855 49.77325843 -18.75165067 50.15930655 -26.02734375 46.3828125 C-31.2357705 42.73175692 -34.00053516 38.16139413 -35.375 32 C-36.72185454 22.98432065 -36.58702257 13.81721443 -32.1875 5.625 C-24.40856254 -3.70972496 -10.70190402 -6.6506362 0 0 Z M-20.5 9.625 C-22.46439193 12.3953504 -22.46439193 12.3953504 -23 18 C-16.73 18 -10.46 18 -4 18 C-4.53560807 12.3953504 -4.53560807 12.3953504 -6.5 9.625 C-10.95673275 6.72812371 -16.04326725 6.72812371 -20.5 9.625 Z " fill="#143156" transform="translate(489,155)"/>
<path d="M0 0 C20.44910795 18.92836732 30.06837378 42.9977956 32.15234375 70.32421875 C32.91830003 96.70375294 23.66393594 122.22818809 5.875 141.6875 C-9.3622108 157.68584874 -29.08515307 169.27287583 -51.125 172.6875 C-51.77597656 172.79707031 -52.42695313 172.90664062 -53.09765625 173.01953125 C-79.06951099 176.66044547 -106.77148429 170.47436819 -127.81689453 154.60864258 C-130.65462606 152.37823004 -133.40738731 150.06221069 -136.125 147.6875 C-137.26195312 146.70330078 -137.26195312 146.70330078 -138.421875 145.69921875 C-156.65213368 128.67215714 -167.37382138 103.30868543 -168.328125 78.56640625 C-168.84288492 50.12346172 -159.94654994 24.33523713 -140.125 3.6875 C-125.0739907 -11.69600583 -106.35567002 -21.65203965 -85.125 -25.3125 C-84.38636719 -25.44269531 -83.64773437 -25.57289062 -82.88671875 -25.70703125 C-52.11591129 -30.0531905 -23.23336918 -20.05218478 0 0 Z M-143.61035156 10.93457031 C-159.94910784 29.84370476 -167.74303573 55.98035126 -166.125 80.6875 C-163.39624786 108.56850888 -150.30161412 132.3894897 -129.125 150.6875 C-109.06862729 166.29937154 -82.98918293 174.06554918 -57.71484375 171.22265625 C-30.5443149 167.73255764 -7.73673006 154.4277712 9.84375 133.32421875 C26.04397947 111.41709026 32.53208054 84.51324233 28.62109375 57.67578125 C24.20024367 32.40935198 9.769593 9.10664952 -10.9375 -6.0625 C-55.16267208 -34.9356219 -107.89688868 -27.82574497 -143.61035156 10.93457031 Z " fill="#B2A268" transform="translate(214.125,50.3125)"/>
<path d="M0 0 C3 1.5625 3 1.5625 4 2.5625 C4.09873816 4.56049572 4.12971799 6.56207158 4.125 8.5625 C4.12886719 10.2021875 4.12886719 10.2021875 4.1328125 11.875 C4 14.5625 4 14.5625 3 15.5625 C1.50261876 15.6604057 0.00057108 15.69224864 -1.5 15.6875 C-2.3146875 15.69007812 -3.129375 15.69265625 -3.96875 15.6953125 C-6 15.5625 -6 15.5625 -7 14.5625 C-7.04063832 12.89632885 -7.042721 11.22861905 -7 9.5625 C-8.77049689 9.50839313 -10.54146849 9.46965881 -12.3125 9.4375 C-13.29863281 9.41429688 -14.28476562 9.39109375 -15.30078125 9.3671875 C-18.22406527 9.35567361 -18.22406527 9.35567361 -21 11.5625 C-20.67 12.8825 -20.34 14.2025 -20 15.5625 C-15.81272543 16.86520765 -11.77546696 17.77376735 -7.4375 18.4375 C-2.78399889 19.26734245 0.40760646 20.32934581 4 23.5625 C7.0369548 28.01670037 7.86233274 32.26956111 7 37.5625 C5.87361583 41.45879744 4.46729305 44.49955493 1.12890625 46.91796875 C-8.26402083 51.83638236 -18.98307813 51.66376554 -29 48.5625 C-31.77734375 47.40625 -31.77734375 47.40625 -34 45.5625 C-34.48828125 42.42578125 -34.48828125 42.42578125 -34.3125 38.875 C-34.26738281 37.69550781 -34.22226562 36.51601562 -34.17578125 35.30078125 C-34.11777344 34.39714844 -34.05976562 33.49351563 -34 32.5625 C-32.18757948 32.53562721 -30.37504767 32.51616285 -28.5625 32.5 C-27.55316406 32.48839844 -26.54382813 32.47679687 -25.50390625 32.46484375 C-23 32.5625 -23 32.5625 -22 33.5625 C-21.95936168 35.22867115 -21.957279 36.89638095 -22 38.5625 C-19.89646505 38.6435206 -17.79204048 38.70169907 -15.6875 38.75 C-14.51574219 38.78480469 -13.34398437 38.81960937 -12.13671875 38.85546875 C-9.05315456 38.80822319 -9.05315456 38.80822319 -7.01953125 37.30078125 C-5.75038403 35.58183561 -5.75038403 35.58183561 -6.4362793 33.45385742 C-6.71532104 32.5176355 -6.71532104 32.5176355 -7 31.5625 C-7.82407349 31.40430786 -7.82407349 31.40430786 -8.66479492 31.24291992 C-11.17442578 30.75528158 -13.68086268 30.25279013 -16.1875 29.75 C-17.05181641 29.58435547 -17.91613281 29.41871094 -18.80664062 29.24804688 C-24.62305685 28.06693553 -29.27673851 27.05825802 -32.8125 21.9375 C-34.74838169 16.43552047 -34.75013018 11.77121663 -32.875 6.25 C-26.19631434 -3.32278277 -10.32814731 -3.87069506 0 0 Z " fill="#143156" transform="translate(772,65.4375)"/>
<path d="M0 0 C5.49220545 4.49362264 7.82211756 10.11920343 9 17 C9.87849622 26.23641162 9.11832399 35.37569109 3.3125 42.9375 C-1.46814965 47.9056261 -6.69132105 49.1359948 -13.4375 49.4375 C-19.59661226 49.24102346 -24.93221397 47.73775526 -29.59765625 43.57421875 C-35.8897522 36.47497347 -35.91667961 28.01711793 -36 19 C-35.37580467 11.41057737 -33.25067305 6.079585 -27.625 0.75 C-19.72699334 -4.51533778 -8.23026983 -5.05367446 0 0 Z M-21 11 C-23.04490084 15.01087568 -23.29794384 18.46875813 -23.3125 22.9375 C-23.32925781 24.12214844 -23.34601562 25.30679688 -23.36328125 26.52734375 C-22.90448539 30.91303752 -21.73674184 34.57339063 -18.25 37.4375 C-14.86232946 38.28441764 -12.36855977 37.84213994 -9 37 C-6.6818638 35.10888889 -5.33085985 33.66171969 -4 31 C-3.82221377 28.40024068 -3.72246978 25.85175193 -3.6875 23.25 C-3.64399414 22.19425781 -3.64399414 22.19425781 -3.59960938 21.1171875 C-3.53768702 15.99192211 -4.51441648 12.9931334 -8 9 C-12.63350937 6.85366266 -17.20343031 7.65008557 -21 11 Z " fill="#143156" transform="translate(778,155)"/>
<path d="M0 0 C5.35066493 3.39193937 8.22039846 8.04684469 9.75 14.109375 C10.05040575 17.42647547 10.07480234 20.71786183 10.0625 24.046875 C10.07861328 24.91505859 10.09472656 25.78324219 10.11132812 26.67773438 C10.11650062 33.52094929 8.68162151 37.91477019 5.125 43.796875 C0.29074481 48.50391295 -5.1129951 50.34216791 -11.8125 50.546875 C-18.59321376 50.24382634 -23.7975891 49.01789607 -28.5625 43.984375 C-34.74708769 35.87868923 -35.03822203 27.01845198 -34.25 17.109375 C-33.26597547 10.00896268 -30.93251774 6.01119339 -25.3828125 1.484375 C-17.9728181 -3.29276424 -8.05731206 -3.55864616 0 0 Z M-19.25 12.109375 C-21.808877 15.7788757 -21.58212876 19.74032612 -21.5625 24.046875 C-21.57861328 24.75005859 -21.59472656 25.45324219 -21.61132812 26.17773438 C-21.61555195 30.68455223 -20.99285863 33.51737586 -18.25 37.109375 C-15.5759797 39.21039095 -14.20715315 39.10784476 -10.75 38.984375 C-6.92447763 38.02799441 -5.57458992 37.23863066 -3.25 34.109375 C-1.22539521 27.98157116 -1.16551833 20.01089017 -3.5 13.984375 C-5.29272389 11.03918575 -5.96250605 9.97959399 -9.25 9.109375 C-13.48351501 8.56661666 -15.86711695 9.54935539 -19.25 12.109375 Z " fill="#143156" transform="translate(700.25,153.890625)"/>
<path d="M0 0 C4.7035964 3.63189089 7.38752943 8.40583691 8.54296875 14.19140625 C10.04998127 34.94337591 10.04998127 34.94337591 3.80859375 42.2109375 C-1.44233852 47.20746414 -6.09735953 48.92046498 -13.33203125 49.50390625 C-19.00538601 49.29540772 -24.13407863 48.19197191 -28.51171875 44.421875 C-34.51235148 37.91081501 -35.80559047 31.95619547 -35.76953125 23.31640625 C-35.78564453 22.55199219 -35.80175781 21.78757812 -35.81835938 21 C-35.8240975 14.24049158 -34.33195509 8.38863197 -30.20703125 2.87890625 C-22.49012241 -4.6626183 -9.2709367 -5.67325977 0 0 Z M-19.76953125 9.81640625 C-23.63010795 15.24981049 -23.99584287 20.73689208 -23.45703125 27.19140625 C-22.51799598 32.12327194 -22.51799598 32.12327194 -19.64453125 36.06640625 C-17.08171008 37.38442857 -15.35284773 38.05351023 -12.45703125 38.19140625 C-8.24542496 36.64657144 -8.24542496 36.64657144 -5.328125 33.40625 C-2.65200039 26.60193316 -2.85702458 18.92778717 -5.45703125 12.19140625 C-8.26877825 8.9779811 -9.78444103 8.28580488 -14.01953125 7.69140625 C-17.44949653 7.92634828 -17.44949653 7.92634828 -19.76953125 9.81640625 Z " fill="#143156" transform="translate(442.45703125,66.80859375)"/>
<path d="M0 0 C5.70823712 3.4201252 8.81425976 7.92908577 10.5 14.375 C10.80060565 17.50487735 10.82485272 20.60746703 10.8125 23.75 C10.82861328 24.56210938 10.84472656 25.37421875 10.86132812 26.2109375 C10.86644024 32.59086081 10.01732671 38.28501129 5.8515625 43.3984375 C5.28179687 43.84445313 4.71203125 44.29046875 4.125 44.75 C3.56039062 45.21148437 2.99578125 45.67296875 2.4140625 46.1484375 C-3.86046757 50.16925881 -10.25662694 50.07568905 -17.5 49.375 C-23.47049908 47.69907043 -27.02203776 44.38735734 -30.5 39.375 C-33.14358328 34.49740268 -32.86745371 29.46942008 -32.875 24.0625 C-32.89949219 23.15048828 -32.92398437 22.23847656 -32.94921875 21.29882812 C-32.97836775 14.521685 -31.80668317 8.94347416 -27.08764648 3.85083008 C-19.77886523 -2.62259504 -8.94727649 -4.09018354 0 0 Z M-19.5 14.375 C-21.57275542 20.59326626 -21.37169167 27.92596151 -19.1875 34.0625 C-17.54276456 36.59576102 -17.54276456 36.59576102 -14.5 38.375 C-11.08461856 38.95869443 -11.08461856 38.95869443 -7.5 38.375 C-4.34045695 35.83362841 -2.78459114 34.22877341 -1.5 30.375 C-0.70111655 20.35642866 -0.70111655 20.35642866 -4.5 11.375 C-10.65614294 7.27090471 -15.10288239 8.8139395 -19.5 14.375 Z " fill="#143156" transform="translate(333.5,154.625)"/>
<path d="M0 0 C1 1 1 1 1.09765625 4.16015625 C1.08605469 5.44792969 1.07445312 6.73570312 1.0625 8.0625 C1.05347656 9.35285156 1.04445313 10.64320313 1.03515625 11.97265625 C1.02355469 12.97167969 1.01195312 13.97070312 1 15 C-2.63 15 -6.26 15 -10 15 C-10.495 12.525 -10.495 12.525 -11 10 C-14.53877444 8.23061278 -18.44273036 8.91582326 -22.3125 9.125 C-24.29714305 9.92455401 -24.29714305 9.92455401 -25.0859375 12.61328125 C-26.06166952 16.22849349 -26.30029127 19.32256002 -26.3125 23.0625 C-26.32925781 24.24972656 -26.34601562 25.43695313 -26.36328125 26.66015625 C-25.97144397 30.26253129 -25.14079636 32.11412255 -23 35 C-19.78463789 37.32836566 -16.88795111 37.25356203 -13 37 C-12.01 36.505 -12.01 36.505 -11 36 C-10.67 34.35 -10.34 32.7 -10 31 C-6.37 31 -2.74 31 1 31 C1 35.62 1 40.24 1 45 C-7.78106277 49.39053139 -17.80390109 50.96892205 -27.4375 47.9375 C-32.57454931 45.64591987 -35.75275395 41.37570677 -38.3125 36.5 C-41.07635208 26.44962881 -41.20246804 14.96321636 -36.1875 5.625 C-27.27583922 -5.06899294 -12.19911943 -5.84225819 0 0 Z " fill="#143156" transform="translate(543,155)"/>
<path d="M0 0 C1 1 1 1 1.09765625 3.28515625 C1.08605469 4.20167969 1.07445312 5.11820313 1.0625 6.0625 C1.05347656 6.98160156 1.04445313 7.90070313 1.03515625 8.84765625 C1.02355469 9.55792969 1.01195312 10.26820313 1 11 C-1.05078125 11.22786458 -3.1015625 11.45572917 -5.15234375 11.68359375 C-7.01140229 11.81886614 -7.01140229 11.81886614 -8 13 C-8.36760731 15.32817964 -8.70241581 17.6618385 -9 20 C-5.7 20 -2.4 20 1 20 C1.09765625 27.71484375 1.09765625 27.71484375 1 30 C0.67 30.33 0.34 30.66 0 31 C-2.97 31 -5.94 31 -9 31 C-9 39.91 -9 48.82 -9 58 C-7.02 58 -5.04 58 -3 58 C-2 59 -2 59 -1.8671875 61.03125 C-1.86976563 61.8459375 -1.87234375 62.660625 -1.875 63.5 C-1.87113281 64.72203125 -1.87113281 64.72203125 -1.8671875 65.96875 C-2 68 -2 68 -3 69 C-4.78071246 69.08726223 -6.5648314 69.10699041 -8.34765625 69.09765625 C-9.42724609 69.09443359 -10.50683594 69.09121094 -11.61914062 69.08789062 C-12.75544922 69.07951172 -13.89175781 69.07113281 -15.0625 69.0625 C-16.20267578 69.05798828 -17.34285156 69.05347656 -18.51757812 69.04882812 C-21.34507418 69.0369976 -24.17254345 69.0190615 -27 69 C-27 65.37 -27 61.74 -27 58 C-25.02 58 -23.04 58 -21 58 C-21 49.09 -21 40.18 -21 31 C-22.65 30.67 -24.3 30.34 -26 30 C-26 26.7 -26 23.4 -26 20 C-24.68 19.67 -23.36 19.34 -22 19 C-21.97421875 18.34773438 -21.9484375 17.69546875 -21.921875 17.0234375 C-21.55209936 11.32553098 -21.03071841 7.34893302 -17 3 C-11.51134863 -0.29319082 -6.33155351 -0.63072947 0 0 Z " fill="#143156" transform="translate(376,134)"/>
<path d="M0 0 C4.14581887 -0.02886751 8.29161216 -0.04675327 12.4375 -0.0625 C14.21350586 -0.07506836 14.21350586 -0.07506836 16.02539062 -0.08789062 C17.15009766 -0.09111328 18.27480469 -0.09433594 19.43359375 -0.09765625 C20.47572021 -0.10289307 21.51784668 -0.10812988 22.59155273 -0.11352539 C25 0 25 0 26 1 C26.0979057 2.49738124 26.12974864 3.99942892 26.125 5.5 C26.12886719 6.72203125 26.12886719 6.72203125 26.1328125 7.96875 C26 10 26 10 25 11 C23.02 11 21.04 11 19 11 C19.33 26.51 19.66 42.02 20 58 C21.98 58.33 23.96 58.66 26 59 C26.02688151 60.64574566 26.04634123 62.29161413 26.0625 63.9375 C26.07410156 64.85402344 26.08570313 65.77054687 26.09765625 66.71484375 C26 69 26 69 25 70 C23.23140807 70.09946453 21.45888549 70.13080217 19.6875 70.1328125 C18.61242187 70.13410156 17.53734375 70.13539062 16.4296875 70.13671875 C15.29789063 70.13285156 14.16609375 70.12898438 13 70.125 C11.86820313 70.12886719 10.73640625 70.13273437 9.5703125 70.13671875 C8.49523437 70.13542969 7.42015625 70.13414063 6.3125 70.1328125 C5.31863281 70.13168457 4.32476563 70.13055664 3.30078125 70.12939453 C1 70 1 70 0 69 C-0.07205511 67.31391034 -0.08386068 65.62499341 -0.0625 63.9375 C-0.05347656 63.01839844 -0.04445313 62.09929687 -0.03515625 61.15234375 C-0.02355469 60.44207031 -0.01195312 59.73179688 0 59 C1.98 59 3.96 59 6 59 C6 43.16 6 27.32 6 11 C4.35 11 2.7 11 1 11 C0 10 0 10 -0.09765625 7.71484375 C-0.08605469 6.79832031 -0.07445312 5.88179687 -0.0625 4.9375 C-0.05347656 4.01839844 -0.04445313 3.09929688 -0.03515625 2.15234375 C-0.02355469 1.44207031 -0.01195312 0.73179688 0 0 Z " fill="#143156" transform="translate(648,45)"/>
<path d="M0 0 C0.66 0.33 1.32 0.66 2 1 C2 4.63 2 8.26 2 12 C0.77023437 12.05607422 0.77023437 12.05607422 -0.484375 12.11328125 C-1.56203125 12.17902344 -2.6396875 12.24476562 -3.75 12.3125 C-5.35101563 12.39951172 -5.35101563 12.39951172 -6.984375 12.48828125 C-10.2305874 13.03912817 -11.67176324 13.70984188 -14 16 C-14.95168683 18.85506049 -15.1900946 20.90937282 -15.31640625 23.88671875 C-15.35830078 24.82451172 -15.40019531 25.76230469 -15.44335938 26.72851562 C-15.48267578 27.70498047 -15.52199219 28.68144531 -15.5625 29.6875 C-15.60568359 30.67556641 -15.64886719 31.66363281 -15.69335938 32.68164062 C-15.79941654 35.12095546 -15.90147714 37.56037113 -16 40 C-14.02 40 -12.04 40 -10 40 C-9.97311849 41.64574566 -9.95365877 43.29161413 -9.9375 44.9375 C-9.92589844 45.85402344 -9.91429687 46.77054688 -9.90234375 47.71484375 C-10 50 -10 50 -11 51 C-12.70772358 51.08713831 -14.41898649 51.10700007 -16.12890625 51.09765625 C-17.68061523 51.09282227 -17.68061523 51.09282227 -19.26367188 51.08789062 C-20.35228516 51.07951172 -21.44089844 51.07113281 -22.5625 51.0625 C-24.2012207 51.05573242 -24.2012207 51.05573242 -25.87304688 51.04882812 C-28.58205432 51.0369984 -31.2910338 51.01906231 -34 51 C-34 47.37 -34 43.74 -34 40 C-32.35 40 -30.7 40 -29 40 C-29 30.76 -29 21.52 -29 12 C-30.65 12 -32.3 12 -34 12 C-34 8.37 -34 4.74 -34 1 C-31.20775927 0.91928212 -28.41783434 0.85964592 -25.625 0.8125 C-24.8309375 0.78736328 -24.036875 0.76222656 -23.21875 0.73632812 C-21.14413852 0.70995595 -19.06899135 0.84513538 -17 1 C-16.34 1.99 -15.68 2.98 -15 4 C-14.401875 3.525625 -13.80375 3.05125 -13.1875 2.5625 C-8.86292957 -0.52647888 -5.10427671 -0.16204053 0 0 Z " fill="#143156" transform="translate(490,64)"/>
<path d="M0 0 C1.50046875 0.00386719 1.50046875 0.00386719 3.03125 0.0078125 C4.0315625 0.00523438 5.031875 0.00265625 6.0625 0 C8.53125 0.1328125 8.53125 0.1328125 9.53125 1.1328125 C9.60396741 3.48594805 9.61495868 5.84114918 9.59375 8.1953125 C9.58472656 9.48566406 9.57570313 10.77601562 9.56640625 12.10546875 C9.55480469 13.10449219 9.54320312 14.10351562 9.53125 15.1328125 C10.665625 15.1121875 11.8 15.0915625 12.96875 15.0703125 C16.53125 15.1328125 16.53125 15.1328125 17.53125 16.1328125 C17.6291557 17.63019374 17.66099864 19.13224142 17.65625 20.6328125 C17.66011719 21.85484375 17.66011719 21.85484375 17.6640625 23.1015625 C17.53125 25.1328125 17.53125 25.1328125 16.53125 26.1328125 C14.22125 26.1328125 11.91125 26.1328125 9.53125 26.1328125 C9.86125 34.7128125 10.19125 43.2928125 10.53125 52.1328125 C12.84125 52.7928125 15.15125 53.4528125 17.53125 54.1328125 C17.55813151 55.77855816 17.57759123 57.42442663 17.59375 59.0703125 C17.60535156 59.98683594 17.61695313 60.90335938 17.62890625 61.84765625 C17.53125 64.1328125 17.53125 64.1328125 16.53125 65.1328125 C10.57291864 65.71630258 5.61023758 65.60138938 0.53125 62.1328125 C-3.73317529 57.72133806 -3.59423581 52.61031875 -3.56640625 46.73828125 C-3.56318359 45.53623047 -3.55996094 44.33417969 -3.55664062 43.09570312 C-3.54826172 41.84982422 -3.53988281 40.60394531 -3.53125 39.3203125 C-3.52673828 38.05509766 -3.52222656 36.78988281 -3.51757812 35.48632812 C-3.50581251 32.3684414 -3.48937272 29.25065117 -3.46875 26.1328125 C-4.78875 26.1328125 -6.10875 26.1328125 -7.46875 26.1328125 C-7.46875 22.5028125 -7.46875 18.8728125 -7.46875 15.1328125 C-6.14875 15.1328125 -4.82875 15.1328125 -3.46875 15.1328125 C-3.48035156 14.13378906 -3.49195313 13.13476562 -3.50390625 12.10546875 C-3.51744141 10.16994141 -3.51744141 10.16994141 -3.53125 8.1953125 C-3.54285156 6.90753906 -3.55445313 5.61976562 -3.56640625 4.29296875 C-3.43946143 0.18503432 -3.43946143 0.18503432 0 0 Z " fill="#143156" transform="translate(790.46875,49.8671875)"/>
<path d="M0 0 C3.96 0 7.92 0 12 0 C12 4.95 12 9.9 12 15 C14.64 15 17.28 15 20 15 C20.02688151 16.64574566 20.04634123 18.29161413 20.0625 19.9375 C20.07410156 20.85402344 20.08570313 21.77054688 20.09765625 22.71484375 C20 25 20 25 19 26 C16.69 26 14.38 26 12 26 C12.33 34.58 12.66 43.16 13 52 C15.31 52.66 17.62 53.32 20 54 C20 57.63 20 61.26 20 65 C7.75580464 65.44795837 7.75580464 65.44795837 3 62 C-0.11502863 57.89414247 -0.35577555 54.81781989 -0.29296875 49.73046875 C-0.28872391 49.04946609 -0.28447906 48.36846344 -0.28010559 47.66682434 C-0.2634061 45.50663541 -0.22577312 43.34740358 -0.1875 41.1875 C-0.17244174 39.71681042 -0.15875534 38.24610611 -0.14648438 36.77539062 C-0.11353214 33.18328643 -0.06181173 29.59173674 0 26 C-1.65 25.67 -3.3 25.34 -5 25 C-5 21.7 -5 18.4 -5 15 C-3.35 15 -1.7 15 0 15 C0 10.05 0 5.1 0 0 Z " fill="#143156" transform="translate(931,50)"/>
<path d="M0 0 C3.96 0 7.92 0 12 0 C12 4.95 12 9.9 12 15 C14.64 15 17.28 15 20 15 C20.02688151 16.64574566 20.04634123 18.29161413 20.0625 19.9375 C20.07410156 20.85402344 20.08570313 21.77054688 20.09765625 22.71484375 C20 25 20 25 19 26 C16.69 26 14.38 26 12 26 C12.33 34.58 12.66 43.16 13 52 C15.31 52.66 17.62 53.32 20 54 C20.02688151 55.64574566 20.04634123 57.29161413 20.0625 58.9375 C20.07410156 59.85402344 20.08570313 60.77054688 20.09765625 61.71484375 C20 64 20 64 19 65 C13.08487781 65.57925867 7.99611815 65.53383967 3 62 C-0.11926038 57.89834654 -0.35574974 54.81572916 -0.29296875 49.73046875 C-0.28872391 49.04946609 -0.28447906 48.36846344 -0.28010559 47.66682434 C-0.2634061 45.50663541 -0.22577312 43.34740358 -0.1875 41.1875 C-0.17244174 39.71681042 -0.15875534 38.24610611 -0.14648438 36.77539062 C-0.11353214 33.18328643 -0.06181173 29.59173674 0 26 C-1.65 25.67 -3.3 25.34 -5 25 C-5 21.7 -5 18.4 -5 15 C-3.68 14.67 -2.36 14.34 -1 14 C-0.67 9.38 -0.34 4.76 0 0 Z " fill="#143156" transform="translate(845,50)"/>
<path d="M0 0 C2.81256281 -0.02684312 5.62487241 -0.04676188 8.4375 -0.0625 C9.23994141 -0.07087891 10.04238281 -0.07925781 10.86914062 -0.08789062 C12.91295221 -0.0965143 14.95683902 -0.0522815 17 0 C18.70521893 1.70521893 18.16878541 3.92101087 18.20532227 6.25415039 C18.22526749 7.37523697 18.24521271 8.49632355 18.26576233 9.65138245 C18.28247482 10.8711528 18.29918732 12.09092316 18.31640625 13.34765625 C18.33718735 14.58921982 18.35796844 15.83078339 18.37937927 17.10997009 C18.43383609 20.41599123 18.48404205 23.72202245 18.53222656 27.02813721 C18.58239856 30.39967491 18.63810701 33.77112053 18.69335938 37.14257812 C18.80070038 43.76164551 18.90244198 50.3807816 19 57 C21.31 57.99 23.62 58.98 26 60 C26.02689216 61.47906892 26.04634621 62.95827483 26.0625 64.4375 C26.07410156 65.26121094 26.08570313 66.08492188 26.09765625 66.93359375 C26 69 26 69 25 70 C20.15092753 70.42307344 15.55867295 70.61697471 11 68.8125 C7.95361457 66.0517132 6.19323398 63.79586874 5.73965454 59.58041382 C5.65234491 56.50106397 5.66326475 53.43576245 5.70703125 50.35546875 C5.71127609 49.2305452 5.71552094 48.10562164 5.71989441 46.9466095 C5.7366631 43.35999438 5.77431312 39.77394479 5.8125 36.1875 C5.82754913 33.75326333 5.84123713 31.31901784 5.85351562 28.88476562 C5.88656075 22.92298471 5.93674272 16.96153277 6 11 C4.02 11 2.04 11 0 11 C0 7.37 0 3.74 0 0 Z " fill="#143156" transform="translate(713,133)"/>
<path d="M0 0 C0.79792969 0.00386719 1.59585938 0.00773437 2.41796875 0.01171875 C3.21589844 0.00785156 4.01382813 0.00398438 4.8359375 0 C10.79136108 0.01011108 10.79136108 0.01011108 11.91796875 1.13671875 C12.00658867 3.94835255 12.0331923 6.7353013 12.015625 9.546875 C12.01421005 10.38890976 12.0127951 11.23094452 12.01133728 12.09849548 C12.00572138 14.7987721 11.99316623 17.49896703 11.98046875 20.19921875 C11.9754558 22.02538943 11.97089254 23.85156141 11.96679688 25.67773438 C11.95574679 30.16409417 11.93847154 34.65039259 11.91796875 39.13671875 C13.89796875 39.13671875 15.87796875 39.13671875 17.91796875 39.13671875 C17.94485026 40.78246441 17.96430998 42.42833288 17.98046875 44.07421875 C17.99207031 44.99074219 18.00367188 45.90726563 18.015625 46.8515625 C17.91796875 49.13671875 17.91796875 49.13671875 16.91796875 50.13671875 C15.22238149 50.23604028 13.52271128 50.26751882 11.82421875 50.26953125 C10.79425781 50.27082031 9.76429688 50.27210937 8.703125 50.2734375 C7.07697266 50.26763672 7.07697266 50.26763672 5.41796875 50.26171875 C4.33386719 50.26558594 3.24976563 50.26945312 2.1328125 50.2734375 C1.10285156 50.27214844 0.07289063 50.27085938 -0.98828125 50.26953125 C-1.94025391 50.26840332 -2.89222656 50.26727539 -3.87304688 50.26611328 C-6.08203125 50.13671875 -6.08203125 50.13671875 -7.08203125 49.13671875 C-7.17993695 47.63933751 -7.21177989 46.13728983 -7.20703125 44.63671875 C-7.20960938 43.82203125 -7.2121875 43.00734375 -7.21484375 42.16796875 C-7.08203125 40.13671875 -7.08203125 40.13671875 -6.08203125 39.13671875 C-4.43203125 39.13671875 -2.78203125 39.13671875 -1.08203125 39.13671875 C-1.08203125 29.89671875 -1.08203125 20.65671875 -1.08203125 11.13671875 C-2.73203125 11.13671875 -4.38203125 11.13671875 -6.08203125 11.13671875 C-7.08203125 10.13671875 -7.08203125 10.13671875 -7.21484375 8.10546875 C-7.21226562 7.29078125 -7.2096875 6.47609375 -7.20703125 5.63671875 C-7.20960938 4.82203125 -7.2121875 4.00734375 -7.21484375 3.16796875 C-6.9273122 -1.22957258 -3.66788929 0.00622732 0 0 Z " fill="#143156" transform="translate(820.08203125,64.86328125)"/>
<path d="M0 0 C5.94 0 11.88 0 18 0 C18.33 12.54 18.66 25.08 19 38 C20.65 38.33 22.3 38.66 24 39 C24.02688151 40.64574566 24.04634123 42.29161413 24.0625 43.9375 C24.07410156 44.85402344 24.08570313 45.77054688 24.09765625 46.71484375 C24 49 24 49 23 50 C21.37742456 50.0991657 19.75060169 50.13079777 18.125 50.1328125 C17.14015625 50.13410156 16.1553125 50.13539062 15.140625 50.13671875 C14.10421875 50.13285156 13.0678125 50.12898438 12 50.125 C10.44539062 50.13080078 10.44539062 50.13080078 8.859375 50.13671875 C7.87453125 50.13542969 6.8896875 50.13414063 5.875 50.1328125 C4.96492187 50.13168457 4.05484375 50.13055664 3.1171875 50.12939453 C1 50 1 50 0 49 C-0.07205511 47.31391034 -0.08386068 45.62499341 -0.0625 43.9375 C-0.05347656 43.01839844 -0.04445313 42.09929687 -0.03515625 41.15234375 C-0.02355469 40.44207031 -0.01195312 39.73179688 0 39 C1.98 39 3.96 39 6 39 C6 29.76 6 20.52 6 11 C4.35 11 2.7 11 1 11 C0 10 0 10 -0.09765625 7.71484375 C-0.06510417 5.14322917 -0.03255208 2.57161458 0 0 Z " fill="#143156" transform="translate(550,65)"/>
<path d="M0 0 C1.50046875 0.00386719 1.50046875 0.00386719 3.03125 0.0078125 C4.0315625 0.00523438 5.031875 0.00265625 6.0625 0 C8.53125 0.1328125 8.53125 0.1328125 9.53125 1.1328125 C9.62948937 2.79710301 9.66098631 4.46563181 9.65625 6.1328125 C9.65882813 7.0403125 9.66140625 7.9478125 9.6640625 8.8828125 C9.53125 11.1328125 9.53125 11.1328125 8.53125 12.1328125 C6.70009117 12.23132421 4.86505067 12.26253879 3.03125 12.2578125 C2.0309375 12.26039062 1.030625 12.26296875 0 12.265625 C-2.46875 12.1328125 -2.46875 12.1328125 -3.46875 11.1328125 C-3.56698937 9.46852199 -3.59848631 7.79999319 -3.59375 6.1328125 C-3.59632813 5.2253125 -3.59890625 4.3178125 -3.6015625 3.3828125 C-3.41432647 0.21081393 -3.18581223 0.17138863 0 0 Z " fill="#143156" transform="translate(822.46875,44.8671875)"/>
<path d="M0 0 C3.96 0 7.92 0 12 0 C12.09765625 8.49609375 12.09765625 8.49609375 12 11 C11 12 11 12 8.75 12.1328125 C7.8425 12.13023438 6.935 12.12765625 6 12.125 C4.63875 12.12886719 4.63875 12.12886719 3.25 12.1328125 C1 12 1 12 0 11 C-0.14310287 7.3308423 -0.04221662 3.67284559 0 0 Z " fill="#143156" transform="translate(556,45)"/>
<path d="M0 0 C2 3 2 3 1.6875 6.125 C1 9 1 9 0 10 C-3.4375 10.1875 -3.4375 10.1875 -7 10 C-9 8 -9 8 -9.375 5.0625 C-9 2 -9 2 -7.3125 0.0625 C-4.36948861 -1.28969442 -3.01471387 -1.11068406 0 0 Z M-7 3 C-6 7 -6 7 -6 7 Z M-1 4 C-1.33 4.66 -1.66 5.32 -2 6 C-1.34 6 -0.68 6 0 6 C-0.33 5.34 -0.66 4.68 -1 4 Z " fill="#143156" transform="translate(896,193)"/>
<path d="M0 0 C0.99 0.33 1.98 0.66 3 1 C3 1.99 3 2.98 3 4 C4.32 4.66 5.64 5.32 7 6 C5.02 8.31 3.04 10.62 1 13 C-0.32 12.67 -1.64 12.34 -3 12 C-3 11.01 -3 10.02 -3 9 C-3.99 8.67 -4.98 8.34 -6 8 C-6 7.01 -6 6.02 -6 5 C-5.38125 4.731875 -4.7625 4.46375 -4.125 4.1875 C-1.7004767 3.04443152 -1.7004767 3.04443152 0 0 Z M1 4 C1 4.66 1 5.32 1 6 C1.66 6 2.32 6 3 6 C3 5.34 3 4.68 3 4 C2.34 4 1.68 4 1 4 Z M-3 7 C-3 7.66 -3 8.32 -3 9 C-2.34 9 -1.68 9 -1 9 C-1 8.34 -1 7.68 -1 7 C-1.66 7 -2.32 7 -3 7 Z " fill="#B2A268" transform="translate(213,60)"/>
<path d="M0 0 C0.99 0.33 1.98 0.66 3 1 C3 2.32 3 3.64 3 5 C3.99 5.33 4.98 5.66 6 6 C6 6.99 6 7.98 6 9 C1.545 10.485 1.545 10.485 -3 12 C-4.54571278 9.68143083 -5.79618552 7.49361571 -7 5 C-6.030625 4.54625 -5.06125 4.0925 -4.0625 3.625 C-0.92920418 2.34213779 -0.92920418 2.34213779 0 0 Z " fill="#B2A268" transform="translate(220,69)"/>
<path d="M0 0 C0.99 0 1.98 0 3 0 C4.32 2.64 5.64 5.28 7 8 C5.68 8.33 4.36 8.66 3 9 C3 9.99 3 10.98 3 12 C2.01 12.33 1.02 12.66 0 13 C-0.45375 12.195625 -0.9075 11.39125 -1.375 10.5625 C-2.74725665 7.91143428 -2.74725665 7.91143428 -5 7 C-4.67 5.68 -4.34 4.36 -4 3 C-3.01 3 -2.02 3 -1 3 C-0.67 2.01 -0.34 1.02 0 0 Z " fill="#B2A268" transform="translate(91,48)"/>
<path d="M0 0 C3.3 0 6.6 0 10 0 C9.67 3.3 9.34 6.6 9 10 C6.33333333 10 3.66666667 10 1 10 C0.67 6.7 0.34 3.4 0 0 Z M4 6 C5 8 5 8 5 8 Z " fill="#B2A268" transform="translate(149,207)"/>
<path d="M0 0 C2.96175123 0.61277612 4.38058783 1.25372522 7 3 C6.625 4.9375 6.625 4.9375 6 7 C5.01 7.495 5.01 7.495 4 8 C2.86649466 10.01669827 2.86649466 10.01669827 2 12 C-0.4375 11.25 -0.4375 11.25 -3 10 C-4 8.0625 -4 8.0625 -4 6 C-2.625 4.4375 -2.625 4.4375 -1 3 C-0.67 2.01 -0.34 1.02 0 0 Z " fill="#B2A268" transform="translate(197,47)"/>
<path d="M0 0 C1.98 0.66 3.96 1.32 6 2 C6 6.33094958 5.03435531 8.27034861 3 12 C0.0625 11.1875 0.0625 11.1875 -3 10 C-3.33 9.01 -3.66 8.02 -4 7 C-3.34 7 -2.68 7 -2 7 C-1.34 4.69 -0.68 2.38 0 0 Z " fill="#B2A268" transform="translate(107,198)"/>
<path d="M0 0 C0.66 0.33 1.32 0.66 2 1 C2.33333333 2.33333333 2.66666667 3.66666667 3 5 C3.66 5.33 4.32 5.66 5 6 C5 7.32 5 8.64 5 10 C2.35261084 11.4606285 1.10551666 12 -2 12 C-2.433125 10.88625 -2.433125 10.88625 -2.875 9.75 C-3.82302644 7.43260203 -4.84845911 5.22082885 -6 3 C-4.03533587 1.93224776 -2.03144641 0.93446535 0 0 Z " fill="#B2A268" transform="translate(189,195)"/>
<path d="M0 0 C0 1.32 0 2.64 0 4 C1.32 4.33 2.64 4.66 4 5 C3.67 5.99 3.34 6.98 3 8 C2.34 8 1.68 8 1 8 C-0.62514468 9.45833358 -0.62514468 9.45833358 -2 11 C-3 10 -4 9 -5 8 C-5.86625 7.2884375 -5.86625 7.2884375 -6.75 6.5625 C-8 5 -8 5 -7.9375 2.9375 C-7 1 -7 1 -5.125 -0.3125 C-3 -1 -3 -1 0 0 Z " fill="#B2A268" transform="translate(200,191)"/>
<path d="M0 0 C0.8353125 0.433125 0.8353125 0.433125 1.6875 0.875 C4.08494645 2.0413253 6.51596939 3.0339881 9 4 C8.75 6.375 8.75 6.375 8 9 C5.9375 10.3125 5.9375 10.3125 4 11 C3.1028125 10.2884375 3.1028125 10.2884375 2.1875 9.5625 C-0.00382924 7.83534256 -0.00382924 7.83534256 -3 7 C-1.125 2.25 -1.125 2.25 0 0 Z " fill="#B2A268" transform="translate(219,163)"/>
<path d="M0 0 C1.67654729 0.27942455 3.34259285 0.62331656 5 1 C6.3921875 1.2784375 6.3921875 1.2784375 7.8125 1.5625 C8.534375 1.706875 9.25625 1.85125 10 2 C9.690625 2.5775 9.38125 3.155 9.0625 3.75 C7.80714968 6.21905868 7.80714968 6.21905868 7 10 C4.03 9.01 1.06 8.02 -2 7 C-1.125 1.125 -1.125 1.125 0 0 Z " fill="#B2A268" transform="translate(60,88)"/>
<path d="M0 0 C3.875 1.875 3.875 1.875 5 3 C5.04063832 4.66617115 5.042721 6.33388095 5 8 C4.360625 8.28875 3.72125 8.5775 3.0625 8.875 C0.84793921 9.82823451 0.84793921 9.82823451 0 12 C-3.41158256 10.86280581 -4.11854601 9.95657056 -6 7 C-6 6.34 -6 5.68 -6 5 C-4.34467377 3.98133771 -2.67739862 2.98189187 -1 2 C-0.67 1.34 -0.34 0.68 0 0 Z M1 4 C1 4.66 1 5.32 1 6 C1.66 5.67 2.32 5.34 3 5 C2.34 4.67 1.68 4.34 1 4 Z " fill="#B2A268" transform="translate(76,172)"/>
<path d="M0 0 C2.4375 0.6875 2.4375 0.6875 5 2 C5.8125 4.625 5.8125 4.625 6 7 C5.01 7.33 4.02 7.66 3 8 C3 9.32 3 10.64 3 12 C2.01 12 1.02 12 0 12 C0 11.34 0 10.68 0 10 C-1.32 9.67 -2.64 9.34 -4 9 C-2.80100302 5.9168649 -1.52299523 2.93720508 0 0 Z " fill="#B2A268" transform="translate(98,193)"/>
<path d="M0 0 C5.75 1.875 5.75 1.875 8 3 C8.125 5.375 8.125 5.375 8 8 C7.34 8.66 6.68 9.32 6 10 C0.54545455 9.54545455 0.54545455 9.54545455 -2 7 C-2.25 4.5 -2.25 4.5 -2 2 C-1.34 1.34 -0.68 0.68 0 0 Z M1 3 C2 6 2 6 2 6 Z M4 5 C3.67 5.66 3.34 6.32 3 7 C3.66 7 4.32 7 5 7 C4.67 6.34 4.34 5.68 4 5 Z " fill="#B2A268" transform="translate(65,78)"/>
<path d="M0 0 C1.65834457 2.18599966 2.03587455 3.3901327 1.875 6.125 C1 8 1 8 -0.875 9.25 C-3 10 -3 10 -6 10 C-6.144375 8.906875 -6.28875 7.81375 -6.4375 6.6875 C-6.88288104 3.06877013 -6.88288104 3.06877013 -8 0 C-4.66411172 -1.11196276 -3.29427581 -1.09809194 0 0 Z M-4 2 C-3.67 3.65 -3.34 5.3 -3 7 C-2.34 6.67 -1.68 6.34 -1 6 C-1.33 4.68 -1.66 3.36 -2 2 C-2.66 2 -3.32 2 -4 2 Z " fill="#B2A268" transform="translate(168,206)"/>
<path d="M0 0 C0.7425 0.2475 1.485 0.495 2.25 0.75 C3 2.4375 3 2.4375 3.25 4.75 C1.3125 7.5 1.3125 7.5 -0.75 9.75 C-2.4 9.42 -4.05 9.09 -5.75 8.75 C-6.5 6.5 -6.5 6.5 -6.75 3.75 C-4.64876805 0.67896869 -3.78845323 -0.34440484 0 0 Z M-1.75 2.75 C-1.09 3.41 -0.43 4.07 0.25 4.75 C0.25 4.09 0.25 3.43 0.25 2.75 C-0.41 2.75 -1.07 2.75 -1.75 2.75 Z M-3.75 4.75 C-2.75 6.75 -2.75 6.75 -2.75 6.75 Z " fill="#B2A268" transform="translate(92.75,188.25)"/>
<path d="M0 0 C1.7325 0.1546875 1.7325 0.1546875 3.5 0.3125 C4.16 1.3025 4.82 2.2925 5.5 3.3125 C5.17 4.6325 4.84 5.9525 4.5 7.3125 C0.045 7.8075 0.045 7.8075 -4.5 8.3125 C-5.125 5.4375 -5.125 5.4375 -5.5 2.3125 C-3.5 0.3125 -3.5 0.3125 0 0 Z M0.5 2.3125 C0.5 3.3025 0.5 4.2925 0.5 5.3125 C1.16 5.3125 1.82 5.3125 2.5 5.3125 C2.17 4.3225 1.84 3.3325 1.5 2.3125 C1.17 2.3125 0.84 2.3125 0.5 2.3125 Z M-2.5 3.3125 C-2.17 3.9725 -1.84 4.6325 -1.5 5.3125 C-1.17 4.6525 -0.84 3.9925 -0.5 3.3125 C-1.16 3.3125 -1.82 3.3125 -2.5 3.3125 Z " fill="#B2A268" transform="translate(233.5,108.6875)"/>
<path d="M0 0 C0.721875 0.00257812 1.44375 0.00515625 2.1875 0.0078125 C2.909375 0.00523438 3.63125 0.00265625 4.375 0 C6.1875 0.1328125 6.1875 0.1328125 7.1875 1.1328125 C7.375 3.5703125 7.375 3.5703125 7.1875 6.1328125 C5.1875 8.1328125 5.1875 8.1328125 2.1875 8.3828125 C-0.8125 8.1328125 -0.8125 8.1328125 -2.8125 6.1328125 C-3 3.5703125 -3 3.5703125 -2.8125 1.1328125 C-1.8125 0.1328125 -1.8125 0.1328125 0 0 Z M0.1875 3.1328125 C0.1875 3.7928125 0.1875 4.4528125 0.1875 5.1328125 C1.8375 4.8028125 3.4875 4.4728125 5.1875 4.1328125 C2.71905755 3.4189139 2.71905755 3.4189139 0.1875 3.1328125 Z " fill="#B2A268" transform="translate(55.8125,117.8671875)"/>
<path d="M0 0 C2.64 0 5.28 0 8 0 C7.67 3.3 7.34 6.6 7 10 C4.36 10 1.72 10 -1 10 C-0.67 6.7 -0.34 3.4 0 0 Z M3 2 C3.33 2.66 3.66 3.32 4 4 C4.33 3.34 4.66 2.68 5 2 C4.34 2 3.68 2 3 2 Z M3 6 C3 6.66 3 7.32 3 8 C3.66 7.67 4.32 7.34 5 7 C4.34 6.67 3.68 6.34 3 6 Z " fill="#B2A268" transform="translate(150,31)"/>
<path d="M0 0 C3.3 0.33 6.6 0.66 10 1 C9.67 3.31 9.34 5.62 9 8 C6.03 8 3.06 8 0 8 C-1.09658936 4.71023192 -0.79953138 3.28696233 0 0 Z M2 2 C3 4 3 4 3 4 Z " fill="#B2A268" transform="translate(54,108)"/>
<path d="M0 0 C0.721875 0.391875 1.44375 0.78375 2.1875 1.1875 C1.8125 4.125 1.8125 4.125 1.1875 7.1875 C-1.54497348 8.55373674 -3.79448902 8.315926 -6.8125 8.1875 C-7.8125 7.1875 -7.8125 7.1875 -8.1875 4.8125 C-7.8125 2.1875 -7.8125 2.1875 -5.625 0.25 C-2.8125 -0.8125 -2.8125 -0.8125 0 0 Z M-4.8125 3.1875 C-4.8125 3.8475 -4.8125 4.5075 -4.8125 5.1875 C-3.4925 4.8575 -2.1725 4.5275 -0.8125 4.1875 C-0.8125 3.5275 -0.8125 2.8675 -0.8125 2.1875 C-2.8870356 2.0384288 -2.8870356 2.0384288 -4.8125 3.1875 Z " fill="#B2A268" transform="translate(227.8125,80.8125)"/>
<path d="M0 0 C1.32 0 2.64 0 4 0 C4 0.99 4 1.98 4 3 C4.99 3.33 5.98 3.66 7 4 C7 5.65 7 7.3 7 9 C5.02 9.66 3.04 10.32 1 11 C1 9.68 1 8.36 1 7 C0.01 6.67 -0.98 6.34 -2 6 C-1.125 1.125 -1.125 1.125 0 0 Z M3 6 C3.33 6.66 3.66 7.32 4 8 C4.33 7.34 4.66 6.68 5 6 C4.34 6 3.68 6 3 6 Z " fill="#B2A268" transform="translate(98,43)"/>
<path d="M0 0 C1.65 0 3.3 0 5 0 C6.46726798 3.81489674 5.43336419 6.29011622 4 10 C1.625 10.1875 1.625 10.1875 -1 10 C-1.66 9.01 -2.32 8.02 -3 7 C-1.625 3.3125 -1.625 3.3125 0 0 Z " fill="#B2A268" transform="translate(116,203)"/>
<path d="M0 0 C0 1.32 0 2.64 0 4 C0.66 4 1.32 4 2 4 C2.1875 6.375 2.1875 6.375 2 9 C-1 11 -1 11 -4 11 C-5.81502739 7.26317891 -6.33059914 4.99179743 -5 1 C-3 0 -3 0 0 0 Z " fill="#B2A268" transform="translate(182,200)"/>
<path d="M0 0 C2.475 0.99 2.475 0.99 5 2 C4.6875 4.875 4.6875 4.875 4 8 C1 10 1 10 -1.6875 9.625 C-2.450625 9.41875 -3.21375 9.2125 -4 9 C-4.8125 7.3125 -4.8125 7.3125 -5 5 C-2.5625 2.25 -2.5625 2.25 0 0 Z M0 3 C-0.66 4.32 -1.32 5.64 -2 7 C-0.68 6.34 0.64 5.68 2 5 C2 4.34 2 3.68 2 3 C1.34 3 0.68 3 0 3 Z " fill="#B2A268" transform="translate(83,181)"/>
<path d="M0 0 C1.32 0 2.64 0 4 0 C4 2.97 4 5.94 4 9 C0 11 0 11 -2.1875 10.625 C-5.16022716 7.95979634 -4.74928962 4.88601088 -5 1 C-3.68 1 -2.36 1 -1 1 C-1 3.31 -1 5.62 -1 8 C-0.34 8 0.32 8 1 8 C0.67 5.36 0.34 2.72 0 0 Z " fill="#B2A268" transform="translate(134,31)"/>
<path d="M0 0 C0.6875 2.3125 0.6875 2.3125 1 5 C-0.0625 6.8125 -0.0625 6.8125 -2 8 C-5.125 8.25 -5.125 8.25 -8 8 C-9 7 -9 7 -9.0625 3.9375 C-9.041875 2.968125 -9.02125 1.99875 -9 1 C-6.04335481 -0.4783226 -3.25770263 -0.06032783 0 0 Z M-4 2 C-4.99 2.99 -5.98 3.98 -7 5 C-5.35 4.67 -3.7 4.34 -2 4 C-2.66 3.34 -3.32 2.68 -4 2 Z " fill="#B2A268" transform="translate(236,99)"/>
<path d="M0 0 C0.8971875 0.5259375 0.8971875 0.5259375 1.8125 1.0625 C1.0625 7.8125 1.0625 7.8125 -1.1875 10.0625 C-3.8125 9.6875 -3.8125 9.6875 -6.1875 9.0625 C-6.1875 5.78974974 -5.88824844 3.215868 -5.1875 0.0625 C-2.1875 -0.9375 -2.1875 -0.9375 0 0 Z M-4.1875 5.0625 C-4.1875 5.7225 -4.1875 6.3825 -4.1875 7.0625 C-3.5275 6.7325 -2.8675 6.4025 -2.1875 6.0625 C-2.8475 5.7325 -3.5075 5.4025 -4.1875 5.0625 Z " fill="#B2A268" transform="translate(130.1875,205.9375)"/>
<path d="M0 0 C2.69082872 0.17635452 5.32851446 0.61835921 8 1 C9.125 5.75 9.125 5.75 8 8 C1.25 8.125 1.25 8.125 -1 7 C-1.04254356 5.00045254 -1.04080783 2.99958364 -1 1 C-0.67 0.67 -0.34 0.34 0 0 Z M1 3 C1.99 3.99 2.98 4.98 4 6 C4.66 5.34 5.32 4.68 6 4 C4.35 3.67 2.7 3.34 1 3 Z " fill="#B2A268" transform="translate(57,98)"/>
<path d="M0 0 C3.3 0.99 6.6 1.98 10 3 C9.67 4.32 9.34 5.64 9 7 C8.34 7 7.68 7 7 7 C6.34 8.32 5.68 9.64 5 11 C2.38114512 8.63055987 0.58133449 6.16266898 -1 3 C-0.67 2.01 -0.34 1.02 0 0 Z " fill="#B2A268" transform="translate(73,65)"/>
<path d="M0 0 C2.31 0.33 4.62 0.66 7 1 C7 5 7 5 5 8 C4.01 8 3.02 8 2 8 C2 8.66 2 9.32 2 10 C0.35 9.67 -1.3 9.34 -3 9 C-3 8.34 -3 7.68 -3 7 C-2.34 7 -1.68 7 -1 7 C-0.67 4.69 -0.34 2.38 0 0 Z " fill="#B2A268" transform="translate(175,36)"/>
<path d="M0 0 C0.99 0.33 1.98 0.66 3 1 C3.73046875 3.06640625 3.73046875 3.06640625 4.1875 5.5625 C4.34605469 6.38878906 4.50460938 7.21507812 4.66796875 8.06640625 C4.77753906 8.70449219 4.88710937 9.34257812 5 10 C2.03 10 -0.94 10 -4 10 C-3.52449439 8.51965236 -3.04448784 7.04074979 -2.5625 5.5625 C-2.29566406 4.73878906 -2.02882812 3.91507813 -1.75390625 3.06640625 C-1 1 -1 1 0 0 Z " fill="#B2A268" transform="translate(142,207)"/>
<path d="M0 0 C0.33 2.31 0.66 4.62 1 7 C-0.875 7.625 -0.875 7.625 -3 8 C-3.66 7.34 -4.32 6.68 -5 6 C-7.10820797 6.3185177 -7.10820797 6.3185177 -9 7 C-9.33 5.68 -9.66 4.36 -10 3 C-3.375 -1.125 -3.375 -1.125 0 0 Z M-3 3 C-2 5 -2 5 -2 5 Z " fill="#B2A268" transform="translate(74,165)"/>
<path d="M0 0 C2.625 0.375 2.625 0.375 5 1 C5.125 7.75 5.125 7.75 4 10 C2.00045254 10.04254356 -0.00041636 10.04080783 -2 10 C-2.33 9.67 -2.66 9.34 -3 9 C-2.4 2.4 -2.4 2.4 0 0 Z M1 3 C0.67 4.65 0.34 6.3 0 8 C0.66 8 1.32 8 2 8 C2.33 6.68 2.66 5.36 3 4 C2.34 3.67 1.68 3.34 1 3 Z " fill="#B2A268" transform="translate(167,33)"/>
<path d="M0 0 C0.99 0 1.98 0 3 0 C6 6.625 6 6.625 6 10 C1.6109185 9.48964169 -1.33708062 8.47785723 -5 6 C-4.34 5.01 -3.68 4.02 -3 3 C-2.34 3 -1.68 3 -1 3 C-0.67 2.01 -0.34 1.02 0 0 Z M-1 3 C-1 3.66 -1 4.32 -1 5 C-0.34 5 0.32 5 1 5 C1 4.34 1 3.68 1 3 C0.34 3 -0.32 3 -1 3 Z " fill="#B2A268" transform="translate(204,183)"/>
<path d="M0 0 C2.9375 1.25 2.9375 1.25 6 3 C6.875 5.1875 6.875 5.1875 7 7 C6.071875 7.12375 6.071875 7.12375 5.125 7.25 C2.81562433 7.81258459 2.81562433 7.81258459 1.75 10.0625 C1.5025 10.701875 1.255 11.34125 1 12 C-0.32 11.34 -1.64 10.68 -3 10 C-2.2265625 8.88625 -2.2265625 8.88625 -1.4375 7.75 C0.26113957 5.17321925 0.26113957 5.17321925 -0.375 2.75 C-0.58125 2.1725 -0.7875 1.595 -1 1 C-0.67 0.67 -0.34 0.34 0 0 Z " fill="#B2A268" transform="translate(189,41)"/>
<path d="M0 0 C0.86625 0.3403125 0.86625 0.3403125 1.75 0.6875 C2.08 2.3375 2.41 3.9875 2.75 5.6875 C1.76 5.6875 0.77 5.6875 -0.25 5.6875 C-0.25 4.6975 -0.25 3.7075 -0.25 2.6875 C-1.24 3.6775 -2.23 4.6675 -3.25 5.6875 C-2.59 6.0175 -1.93 6.3475 -1.25 6.6875 C-1.58 8.0075 -1.91 9.3275 -2.25 10.6875 C-3.9 9.6975 -5.55 8.7075 -7.25 7.6875 C-6.91753345 4.61218444 -6.61895244 3.06917494 -4.4375 0.8125 C-2.25 -0.3125 -2.25 -0.3125 0 0 Z " fill="#B2A268" transform="translate(208.25,54.3125)"/>
<path d="M0 0 C0 0.99 0 1.98 0 3 C-0.66 3 -1.32 3 -2 3 C-1.67 4.32 -1.34 5.64 -1 7 C-0.34 7 0.32 7 1 7 C1 7.99 1 8.98 1 10 C-0.32 10.33 -1.64 10.66 -3 11 C-3.33 9.02 -3.66 7.04 -4 5 C-5.32 5.33 -6.64 5.66 -8 6 C-8.33 5.01 -8.66 4.02 -9 3 C-5.55930376 0.70620251 -4.27709699 0 0 0 Z " fill="#B2A268" transform="translate(112,38)"/>
<path d="M0 0 C2.0625 0.4375 2.0625 0.4375 4 1 C3.67 1.66 3.34 2.32 3 3 C2.34 3 1.68 3 1 3 C1.33 3.66 1.66 4.32 2 5 C2.99 5.33 3.98 5.66 5 6 C5 5.01 5 4.02 5 3 C5.99 3.33 6.98 3.66 8 4 C7.67 5.65 7.34 7.3 7 9 C1.58860759 9.36075949 1.58860759 9.36075949 -0.9375 7.8125 C-2 6 -2 6 -1.75 3.375 C-1 1 -1 1 0 0 Z " fill="#B2A268" transform="translate(214,172)"/>
<path d="M0 0 C0.66 0 1.32 0 2 0 C2 2.97 2 5.94 2 9 C1.278125 8.67 0.55625 8.34 -0.1875 8 C-3.01697427 6.99396471 -5.02895466 6.83022598 -8 7 C-8 5.35 -8 3.7 -8 2 C-6.865625 1.855625 -5.73125 1.71125 -4.5625 1.5625 C-1.19222799 1.38828522 -1.19222799 1.38828522 0 0 Z " fill="#B2A268" transform="translate(237,118)"/>
<path d="M0 0 C0 0.99 0 1.98 0 3 C-0.66 3 -1.32 3 -2 3 C-1.34 5.31 -0.68 7.62 0 10 C-1.32 10.33 -2.64 10.66 -4 11 C-4.66 9.02 -5.32 7.04 -6 5 C-6.66 5 -7.32 5 -8 5 C-8 3.68 -8 2.36 -8 1 C-5.07175348 0.02391783 -3.04386724 -0.08226668 0 0 Z " fill="#B2A268" transform="translate(127,33)"/>
<path d="M0 0 C0.33 1.32 0.66 2.64 1 4 C-1.31 4.66 -3.62 5.32 -6 6 C-6 7.32 -6 8.64 -6 10 C-6.66 10 -7.32 10 -8 10 C-8.66 7.69 -9.32 5.38 -10 3 C-3.375 0 -3.375 0 0 0 Z " fill="#B2A268" transform="translate(233,89)"/>
<path d="M0 0 C2.64 0 5.28 0 8 0 C8 0.99 8 1.98 8 3 C7.34 3 6.68 3 6 3 C6 5.31 6 7.62 6 10 C4.68 10 3.36 10 2 10 C2 7.69 2 5.38 2 3 C1.34 3 0.68 3 0 3 C0 2.01 0 1.02 0 0 Z " fill="#B2A268" transform="translate(140,31)"/>
<path d="M0 0 C1.2065625 0.0309375 1.2065625 0.0309375 2.4375 0.0625 C2.81968767 1.71864657 3.15145102 3.38707024 3.4375 5.0625 C2.4375 6.0625 2.4375 6.0625 -0.125 6.125 C-1.3315625 6.0940625 -1.3315625 6.0940625 -2.5625 6.0625 C-2.94468767 4.40635343 -3.27645102 2.73792976 -3.5625 1.0625 C-2.5625 0.0625 -2.5625 0.0625 0 0 Z " fill="#B2A268" transform="translate(231.5625,143.9375)"/>
<path d="M0 0 C1.2065625 0.0309375 1.2065625 0.0309375 2.4375 0.0625 C2.81968767 1.71864657 3.15145102 3.38707024 3.4375 5.0625 C2.4375 6.0625 2.4375 6.0625 -0.125 6.125 C-1.3315625 6.0940625 -1.3315625 6.0940625 -2.5625 6.0625 C-2.94468767 4.40635343 -3.27645102 2.73792976 -3.5625 1.0625 C-2.5625 0.0625 -2.5625 0.0625 0 0 Z " fill="#B2A268" transform="translate(60.5625,143.9375)"/>
<path d="M0 0 C0.99 0 1.98 0 3 0 C3.268125 0.61875 3.53625 1.2375 3.8125 1.875 C4.95556848 4.2995233 4.95556848 4.2995233 8 6 C7.34 7.32 6.68 8.64 6 10 C3.69 8.02 1.38 6.04 -1 4 C-0.67 2.68 -0.34 1.36 0 0 Z " fill="#B2A268" transform="translate(82,55)"/>
<path d="M0 0 C1.1446875 1.175625 1.1446875 1.175625 2.3125 2.375 C4.90891805 5.07257717 4.90891805 5.07257717 8 7 C7.01 8.485 7.01 8.485 6 10 C4 10 4 10 1.375 7.75 C-1 5 -1 5 -1 1 C-0.67 0.67 -0.34 0.34 0 0 Z " fill="#B2A268" transform="translate(209,178)"/>
<path d="M0 0 C0.66 0 1.32 0 2 0 C2 0.66 2 1.32 2 2 C4.31 2.66 6.62 3.32 9 4 C8.67 5.32 8.34 6.64 8 8 C7.01 8 6.02 8 5 8 C5 7.34 5 6.68 5 6 C3.02 5.34 1.04 4.68 -1 4 C-0.67 2.68 -0.34 1.36 0 0 Z " fill="#B2A268" transform="translate(68,72)"/>
<path d="M0 0 C0.309375 1.093125 0.61875 2.18625 0.9375 3.3125 C1.58337897 5.55407994 2.2623117 7.7869351 3 10 C1.68 10.33 0.36 10.66 -1 11 C-4 4.375 -4 4.375 -4 1 C-1 0 -1 0 0 0 Z " fill="#B2A268" transform="translate(117,35)"/>
</svg>
